<svg width="123" height="109" viewBox="0 0 123 109" fill="none" xmlns="http://www.w3.org/2000/svg">
<g clip-path="url(#clip0_7_1632)">
<path fill-rule="evenodd" clip-rule="evenodd" d="M118.19 33.5C120.923 36.6393 122.355 40.7032 122.194 44.8624C122.033 49.0216 120.29 52.9625 117.322 55.8807C114.354 58.7989 110.384 60.4745 106.223 60.5654C102.062 60.6563 98.0226 59.1558 94.9299 56.37L118.19 33.5Z" fill="#01B5E6"/>
<path fill-rule="evenodd" clip-rule="evenodd" d="M90.05 39.9999C90.7614 37.3497 92.1283 34.9211 94.0249 32.938C95.9216 30.9549 98.2868 29.4811 100.903 28.6523C103.519 27.8235 106.301 27.6664 108.994 28.1955C111.686 28.7246 114.202 29.9229 116.31 31.6799L93.11 54.4499C91.5025 52.45 90.388 50.1001 89.8564 47.5899C89.3248 45.0797 89.3911 42.4797 90.05 39.9999Z" fill="#01B5E6"/>
<path fill-rule="evenodd" clip-rule="evenodd" d="M75.1001 87.9999C75.8115 85.3497 77.1785 82.9211 79.0751 80.938C80.9717 78.9549 83.3369 77.4811 85.9528 76.6523C88.5687 75.8235 91.3511 75.6664 94.0437 76.1955C96.7362 76.7246 99.2523 77.9229 101.36 79.6799L78.1701 102.48C76.5534 100.479 75.4326 98.1244 74.8991 95.608C74.3655 93.0916 74.4344 90.4847 75.1001 87.9999Z" fill="#01B5E6"/>
<path fill-rule="evenodd" clip-rule="evenodd" d="M53.6501 11.94C54.7679 7.81849 57.4716 4.30695 61.1704 2.17272C64.8692 0.0384886 69.2625 -0.544908 73.3901 0.550012C77.5116 1.66777 81.0232 4.37146 83.1574 8.0703C85.2916 11.7691 85.875 16.1624 84.7801 20.29C82.2601 29.71 79.7801 39.08 77.2001 48.46L62.7601 44.59V38.65C62.7537 36.156 61.7616 33.7656 60.0001 32C58.2261 30.2242 55.8202 29.2244 53.3101 29.22H49.1101C50.6301 23.5 52.1601 17.7633 53.7001 12.01L53.6501 11.94Z" fill="#D92D27"/>
<path fill-rule="evenodd" clip-rule="evenodd" d="M58.2501 4.32988C60.3667 2.36506 62.9698 1.00137 65.7901 0.379883L57.0801 29.9999C55.8774 29.4657 54.5761 29.1898 53.2601 29.1899H49.1201L54.5601 10.7699C55.2664 8.37463 56.531 6.18119 58.2501 4.36988V4.32988Z" fill="#DE5149"/>
<path fill-rule="evenodd" clip-rule="evenodd" d="M74.42 52.6C72.1867 60.8667 69.9667 69.12 67.76 77.36C66.6469 81.4625 63.9556 84.9579 60.2738 87.0827C56.592 89.2074 52.2191 89.7888 48.11 88.7C45.5102 87.9897 43.1305 86.6377 41.1892 84.7681C39.248 82.8985 37.8075 80.5713 37 78C38.2008 77.5194 39.2926 76.8018 40.21 75.89C41.0923 75.0112 41.7928 73.9672 42.2716 72.8176C42.7503 71.668 42.9978 70.4353 43 69.19V58.94H53.26C54.5123 58.9447 55.753 58.7005 56.9101 58.2216C58.0671 57.7426 59.1175 57.0384 60 56.15C61.7679 54.3862 62.7702 51.9972 62.79 49.5L74.42 52.6Z" fill="#FCCB64"/>
<path fill-rule="evenodd" clip-rule="evenodd" d="M26 77.87C27.0117 77.4022 27.9326 76.759 28.72 75.97C29.6083 75.0905 30.3139 74.0439 30.7962 72.8907C31.2784 71.7374 31.5278 70.5001 31.53 69.25V59H37.08L29.62 84.34C27.9144 82.503 26.6732 80.2846 26 77.87Z" fill="#FCD582"/>
<path fill-rule="evenodd" clip-rule="evenodd" d="M103.24 81.5701C105.94 84.7121 107.346 88.7627 107.174 92.9022C107.001 97.0416 105.262 100.961 102.309 103.867C99.3559 106.773 95.4092 108.449 91.2675 108.555C87.1258 108.661 83.0983 107.191 80 104.44L103.26 81.5701H103.24Z" fill="#01B5E6"/>
<path fill-rule="evenodd" clip-rule="evenodd" d="M22.57 15.9299H33.65C34.6482 15.9352 35.6041 16.3341 36.31 17.0399C37.0159 17.7458 37.4147 18.7017 37.42 19.6999V34.6999H52.42C53.4173 34.7026 54.3732 35.0992 55.0794 35.8035C55.7855 36.5078 56.1847 37.4626 56.19 38.4599V49.5799C56.1847 50.5782 55.7859 51.534 55.08 52.2399C54.3741 52.9458 53.4182 53.3447 52.42 53.3499H37.42V68.3499C37.4147 69.3482 37.0159 70.304 36.31 71.0099C35.6041 71.7158 34.6482 72.1147 33.65 72.1199H22.57C21.5718 72.1147 20.6159 71.7158 19.91 71.0099C19.2041 70.304 18.8053 69.3482 18.8 68.3499V53.3499H3.8C2.79655 53.3526 1.83301 52.9572 1.12065 52.2505C0.408302 51.5438 0.00529172 50.5834 0 49.5799L0 38.4999C0.00525404 37.5017 0.404136 36.5458 1.11001 35.8399C1.81589 35.1341 2.77175 34.7352 3.77 34.7299H18.77V19.7299C18.7726 18.7326 19.1693 17.7767 19.8736 17.0706C20.5779 16.3644 21.5327 15.9652 22.53 15.9599L22.57 15.9299Z" fill="#D92D27"/>
</g>
<defs>
<clipPath id="clip0_7_1632">
<rect width="122.18" height="108.61" fill="white"/>
</clipPath>
</defs>
</svg>
