<svg width="272" height="287" viewBox="0 0 272 287" fill="none" xmlns="http://www.w3.org/2000/svg">
<path d="M216.245 266.158C202.02 260.211 195.492 244.203 192.603 229.072C192.119 226.546 191.265 223.969 191.901 221.489C192.538 219.01 194.834 216.846 197.195 217.368C199.158 217.804 200.415 219.773 201.802 221.317C203.657 223.375 206.026 224.838 208.635 225.536C210.332 225.99 212.318 226.024 213.612 224.784C215.397 223.062 214.967 220.031 214.39 217.54L211.175 203.627C210.599 201.141 210.022 198.598 210.223 196.044C210.425 193.49 211.556 190.878 213.656 189.667C215.756 188.456 218.835 189.093 219.858 191.435C220.287 192.399 220.325 193.501 220.625 194.517C220.924 195.533 221.636 196.566 222.632 196.624C223.628 196.681 224.427 195.734 224.971 194.827C226.843 191.705 227.767 188.048 228.589 184.438C229.41 180.827 230.172 177.148 231.766 173.853C233.36 170.558 235.933 167.614 239.268 166.563C242.602 165.513 246.704 166.816 248.347 170.105C249.99 173.394 248.853 177.458 247.379 180.827C245.19 185.827 242.328 190.467 238.881 194.603C238.267 195.344 237.592 196.147 237.516 197.146C237.374 198.931 239.24 200.211 240.916 200.366C242.814 200.544 244.686 199.873 246.579 199.643C248.472 199.413 250.659 199.769 251.769 201.428C253.308 203.724 251.888 206.91 250.294 209.154C247.102 213.652 243.199 217.536 238.756 220.634C237.173 221.736 235.492 222.787 234.361 224.423C233.229 226.058 232.908 228.515 234.148 230.059C235.389 231.603 237.69 231.62 239.431 230.811C241.172 230.002 242.564 228.55 244.147 227.425C247.101 225.318 251.344 224.503 254.092 226.942C255.892 228.55 256.627 231.224 256.452 233.721C256.278 236.218 255.332 238.56 254.276 240.776C250.501 248.542 245.007 255.43 238.098 260.022C231.189 264.614 224.378 267.151 216.245 266.141" fill="#F5F5F5"/>
<path d="M217.801 255.826C218.325 247.057 219.326 238.328 220.799 229.68C221.161 227.384 221.535 225.113 221.919 222.867C222.289 220.634 222.659 218.418 223.149 216.272C224.091 212.156 225.25 208.1 226.62 204.12C227.898 200.315 229.247 196.75 230.531 193.427C231.815 190.103 233.077 187.032 234.339 184.283C236.304 179.933 238.597 175.756 241.193 171.792C242.107 170.392 242.852 169.324 243.369 168.613C243.62 168.276 243.815 168.006 243.957 167.803C244.019 167.707 244.092 167.618 244.174 167.539C244.123 167.644 244.062 167.744 243.995 167.838L243.451 168.67C242.961 169.405 242.238 170.484 241.346 171.896C238.817 175.893 236.573 180.084 234.633 184.432C233.398 187.181 232.157 190.252 230.884 193.576C229.612 196.899 228.284 200.464 227.017 204.275C225.664 208.247 224.518 212.294 223.584 216.398C223.1 218.533 222.735 220.732 222.365 222.97C221.996 225.209 221.626 227.482 221.25 229.778C219.779 238.407 218.769 247.117 218.226 255.866" fill="#E0E0E0"/>
<path d="M223.269 216.226C223.075 215.909 222.916 215.57 222.795 215.216C222.518 214.561 222.142 213.597 221.707 212.397C220.815 209.998 219.689 206.657 218.443 202.938C217.197 199.218 216.05 195.9 215.13 193.524C214.668 192.336 214.287 191.377 214.015 190.717C213.853 190.384 213.729 190.031 213.645 189.667C213.859 189.968 214.042 190.294 214.189 190.637C214.51 191.274 214.934 192.215 215.435 193.392C216.436 195.745 217.654 199.069 218.884 202.777C220.113 206.485 221.169 209.751 222.001 212.277L222.964 215.147C223.101 215.494 223.203 215.856 223.269 216.226Z" fill="#E0E0E0"/>
<path d="M252.291 202.622C251.912 202.815 251.517 202.969 251.11 203.081C250.349 203.345 249.244 203.73 247.89 204.229C245.17 205.239 241.487 206.778 237.478 208.666C233.468 210.555 229.911 212.432 227.376 213.867C226.103 214.578 225.085 215.181 224.384 215.589C224.03 215.826 223.657 216.03 223.268 216.197C223.585 215.909 223.928 215.653 224.291 215.434C224.971 214.969 225.967 214.32 227.223 213.574C229.726 212.059 233.273 210.13 237.293 208.23C240.72 206.6 244.224 205.157 247.792 203.908C249.157 203.431 250.283 203.098 251.056 202.886C251.458 202.755 251.872 202.666 252.291 202.622Z" fill="#E0E0E0"/>
<path d="M218.041 255.143C217.93 255.043 217.832 254.929 217.747 254.804L216.969 253.777C216.294 252.876 215.337 251.55 214.205 249.902C211.915 246.596 208.891 241.924 205.616 236.729C202.341 231.534 199.354 226.833 197.135 223.481L194.491 219.521C194.203 219.09 193.947 218.734 193.778 218.441C193.61 218.149 193.539 218.057 193.555 218.045C193.571 218.034 193.664 218.149 193.849 218.384L194.627 219.412C195.301 220.307 196.259 221.633 197.39 223.286C199.681 226.592 202.705 231.259 205.986 236.459C209.266 241.66 212.242 246.355 214.461 249.701L217.105 253.662L217.818 254.747C217.975 254.994 218.057 255.132 218.041 255.143Z" fill="#E0E0E0"/>
<path d="M255.315 231.322C255.206 231.431 255.084 231.523 254.951 231.598L253.863 232.304L249.875 234.864C246.503 237.028 241.884 240.07 236.787 243.439C231.69 246.809 227.033 249.811 223.622 251.9C221.919 252.945 220.527 253.771 219.558 254.328L218.438 254.959C218.31 255.041 218.173 255.105 218.03 255.149C218.139 255.04 218.262 254.948 218.394 254.873L219.482 254.167L223.47 251.607C226.843 249.443 231.461 246.401 236.564 243.032C241.667 239.662 246.312 236.666 249.723 234.577C251.426 233.532 252.813 232.7 253.787 232.143L254.907 231.517C255.034 231.432 255.171 231.366 255.315 231.322Z" fill="#E0E0E0"/>
<path d="M33.2399 91.3476L25.9732 130.83L81.4903 142.206L88.757 102.724L33.2399 91.3476Z" fill="#EBEBEB"/>
<path d="M88.8461 103.234C88.6554 103.396 88.4494 103.536 88.2313 103.653L86.4253 104.766L79.7177 108.784L57.4518 121.86L57.2723 121.964L57.1363 121.797L56.8045 121.39L40.1254 100.576L35.1152 94.2336L33.7715 92.5116C33.6042 92.3178 33.4566 92.1062 33.3309 91.8802C33.5179 92.0561 33.6908 92.2481 33.8477 92.4542L35.2675 94.1303L40.4029 100.364L57.1961 121.062L57.528 121.47L57.207 121.407L79.5437 108.475L86.3273 104.617L88.1824 103.596C88.3923 103.453 88.6145 103.332 88.8461 103.234Z" fill="#E0E0E0"/>
<path d="M26.063 131.343C25.9705 131.222 31.1439 126.67 37.6121 121.166C44.0803 115.661 49.3951 111.293 49.4822 111.408C49.5692 111.522 44.4012 116.08 37.9331 121.585C31.4649 127.089 26.15 131.446 26.063 131.343Z" fill="#E0E0E0"/>
<path d="M68.0271 114.697C68.1523 114.628 71.2911 120.85 75.0284 128.582C78.7657 136.314 81.7033 142.65 81.5564 142.719C81.4095 142.788 78.2924 136.572 74.5497 128.829C70.807 121.085 67.902 114.766 68.0271 114.697Z" fill="#E0E0E0"/>
<path d="M111.134 83.4309L76.0403 87.3054L73.1517 61.5787L108.245 57.6985L111.134 83.4309Z" fill="#F5F5F5"/>
<path d="M108.392 57.974C108.31 58.1112 108.213 58.2383 108.104 58.3528L107.233 59.3918L103.969 63.1744L93.1165 75.5843L93.0294 75.6876L92.9152 75.6073L92.6432 75.4236C87.3011 71.7041 82.4595 68.3462 78.9235 65.8895L74.7837 62.9621L73.6957 62.1527C73.5616 62.0664 73.4359 61.9664 73.3203 61.8542C73.4631 61.921 73.5997 62.0017 73.7283 62.0953L74.8762 62.853C75.8989 63.5361 77.3242 64.5004 79.0704 65.6828L92.839 75.1309L93.111 75.3145H92.9097C97.1747 70.5044 101.021 66.1305 103.833 62.9793L107.163 59.277C107.543 58.8637 107.848 58.5308 108.082 58.284C108.177 58.1723 108.281 58.0687 108.392 57.974Z" fill="#E0E0E0"/>
<path d="M76.1872 87.6039C76.111 87.5522 78.3632 83.7294 81.1974 79.0742C84.0317 74.4191 86.3981 70.6881 86.4742 70.7455C86.5504 70.8029 84.2982 74.6143 81.464 79.2752C78.6297 83.936 76.2579 87.6556 76.1872 87.6039Z" fill="#E0E0E0"/>
<path d="M98.105 69.1326C98.1702 69.0694 101.168 72.2781 104.807 76.3076C108.446 80.337 111.335 83.6605 111.281 83.7236C111.226 83.7868 108.218 80.5781 104.579 76.5486C100.939 72.5192 98.0397 69.2014 98.105 69.1326Z" fill="#E0E0E0"/>
<path d="M62.5056 52.2455L43.112 38.0734L52.273 23.7062L71.6666 37.8725L62.5056 52.2455Z" fill="#F5F5F5"/>
<path d="M71.6176 38.0907C71.5186 38.1235 71.4164 38.1447 71.313 38.1538L70.4426 38.2801L67.233 38.6991L56.6032 39.9963H56.5162V39.9102C56.5162 39.8356 56.4781 39.761 56.4563 39.6864L53.4099 28.5565C53.04 27.1445 52.7354 25.9965 52.5232 25.1699L52.2893 24.2515C52.2565 24.1452 52.2346 24.0355 52.224 23.9243C52.2688 24.0241 52.3052 24.1278 52.3328 24.2343C52.3981 24.4639 52.4906 24.7681 52.5994 25.147C52.8333 25.962 53.1434 27.1043 53.5568 28.5049C54.351 31.3749 55.439 35.2953 56.6358 39.629L56.6957 39.8471L56.5869 39.7667L67.2166 38.5326L70.4371 38.1882L71.313 38.1079C71.414 38.0945 71.5158 38.0887 71.6176 38.0907Z" fill="#E0E0E0"/>
<path d="M43.063 38.2915C43.063 38.2341 45.783 37.3272 49.1231 36.2768C52.4633 35.2264 55.2268 34.417 55.2431 34.4744C55.2595 34.5318 52.5231 35.4445 49.1775 36.4949C45.8319 37.5453 43.0793 38.3547 43.063 38.2915Z" fill="#E0E0E0"/>
<path d="M61.8038 39.032C61.8637 39.032 62.0541 42.034 62.239 45.7478C62.424 49.4616 62.5165 52.4808 62.4566 52.4866C62.3968 52.4923 62.201 49.4846 62.0214 45.7708C61.8419 42.057 61.744 39.032 61.8038 39.032Z" fill="#E0E0E0"/>
<path d="M218.394 71.1014C218.402 67.591 217.642 64.126 216.174 60.976C214.705 57.8261 212.568 55.0762 209.927 52.9403C207.287 50.8044 204.215 49.3401 200.951 48.6614C197.687 47.9827 194.318 48.1079 191.107 49.0272C187.897 49.9465 184.93 51.6352 182.439 53.9618C179.947 56.2884 177.998 59.1901 176.744 62.4413C175.489 65.6924 174.962 69.2052 175.204 72.7064C175.445 76.2075 176.45 79.6026 178.138 82.6273L178.198 82.7134C179.025 84.1886 180.064 85.2448 181.114 86.7946L193.664 104.342C194.029 104.85 194.5 105.261 195.041 105.545C195.582 105.828 196.177 105.976 196.781 105.976C197.385 105.976 197.981 105.828 198.521 105.545C199.062 105.261 199.533 104.85 199.898 104.342L212.247 87.0816C213.37 85.6805 214.418 84.2145 215.386 82.6904L215.424 82.656C217.376 79.1542 218.402 75.1639 218.394 71.1014ZM196.77 81.0373C194.887 81.0373 193.047 80.4482 191.481 79.3444C189.916 78.2407 188.695 76.6719 187.975 74.8364C187.254 73.0009 187.066 70.9812 187.433 69.0326C187.8 67.0841 188.707 65.2943 190.039 63.8894C191.37 62.4846 193.066 61.5279 194.913 61.1403C196.76 60.7527 198.674 60.9517 200.413 61.712C202.153 62.4722 203.64 63.7597 204.686 65.4116C205.732 67.0635 206.29 69.0056 206.29 70.9923C206.29 73.6564 205.287 76.2114 203.502 78.0952C201.717 79.979 199.295 81.0373 196.77 81.0373Z" fill="#F5F5F5"/>
<path d="M234.932 110.26C234.944 108.362 234.539 106.486 233.75 104.781C232.961 103.075 231.809 101.585 230.383 100.427C228.958 99.2691 227.298 98.4749 225.533 98.1064C223.768 97.7379 221.947 97.8051 220.211 98.3028C218.475 98.8005 216.871 99.7151 215.526 100.975C214.181 102.235 213.13 103.807 212.455 105.566C211.781 107.326 211.502 109.227 211.639 111.119C211.777 113.012 212.327 114.845 213.248 116.476L213.281 116.522C213.727 117.314 214.287 117.888 214.853 118.72L221.626 128.186C221.821 128.46 222.075 128.683 222.366 128.836C222.657 128.99 222.978 129.07 223.304 129.07C223.629 129.07 223.95 128.99 224.242 128.836C224.533 128.683 224.786 128.46 224.982 128.186L231.641 118.875C232.248 118.121 232.815 117.332 233.338 116.511V116.476C234.387 114.592 234.937 112.445 234.932 110.26ZM223.268 115.615C222.254 115.614 221.263 115.296 220.42 114.7C219.577 114.105 218.92 113.259 218.533 112.27C218.145 111.281 218.045 110.192 218.243 109.143C218.442 108.093 218.931 107.129 219.648 106.373C220.366 105.616 221.28 105.101 222.275 104.893C223.27 104.685 224.301 104.792 225.238 105.202C226.175 105.612 226.976 106.306 227.54 107.196C228.103 108.086 228.404 109.132 228.404 110.202C228.404 110.914 228.271 111.618 228.013 112.275C227.755 112.932 227.376 113.529 226.899 114.032C226.422 114.534 225.856 114.933 225.233 115.205C224.61 115.476 223.943 115.616 223.268 115.615Z" fill="#EBEBEB"/>
<path d="M256.425 266.204C256.425 266.29 202.504 266.353 136.005 266.353C69.5069 266.353 15.5747 266.29 15.5747 266.204C15.5747 266.118 69.4851 266.055 136.005 266.055C202.526 266.055 256.425 266.124 256.425 266.204Z" fill="#263238"/>
<path d="M103.006 68.2716L106.586 121.768C106.869 125.978 108.655 129.918 111.582 132.794C114.51 135.67 118.362 137.268 122.362 137.266C124.527 137.267 126.669 136.798 128.656 135.889C130.642 134.98 132.43 133.65 133.909 131.981C135.388 130.313 136.527 128.342 137.254 126.19C137.982 124.038 138.282 121.752 138.138 119.472C137.822 114.381 137.534 110.214 137.534 110.214C137.534 110.214 149.812 108.199 149.964 95.2496C150.052 87.7876 148.828 70.7972 147.788 57.7961C147.445 53.5566 145.606 49.6075 142.635 46.7302C139.665 43.8528 135.778 42.2568 131.746 42.2579H124.309C121.276 42.4445 118.31 43.2714 115.585 44.6894C112.86 46.1074 110.433 48.0879 108.447 50.5135C106.46 52.9391 104.955 55.7605 104.021 58.8108C103.086 61.861 102.741 65.0781 103.006 68.2716Z" fill="#B78876"/>
<path d="M137.545 110.053C137.545 110.053 129.788 110.719 121.546 105.254C121.546 105.254 125.327 114.576 137.572 113.411L137.545 110.053Z" fill="#AA6550"/>
<path d="M143.953 73.472C143.958 73.9544 143.783 74.4196 143.467 74.7682C143.151 75.1167 142.718 75.3211 142.261 75.3375C142.039 75.3562 141.815 75.3278 141.602 75.2538C141.39 75.1798 141.194 75.0618 141.026 74.9067C140.858 74.7516 140.721 74.5625 140.623 74.3506C140.525 74.1387 140.468 73.9083 140.455 73.6729C140.451 73.1909 140.624 72.7259 140.939 72.3766C141.254 72.0273 141.685 71.821 142.142 71.8017C142.365 71.7829 142.59 71.8116 142.803 71.8858C143.016 71.9601 143.212 72.0786 143.381 72.2342C143.55 72.3898 143.687 72.5795 143.786 72.7921C143.884 73.0047 143.941 73.2358 143.953 73.472Z" fill="#263238"/>
<path d="M145.651 70.8087C145.433 71.0497 144.106 70.0165 142.223 70.0223C140.341 70.028 138.959 71.021 138.747 70.78C138.649 70.6709 138.872 70.206 139.471 69.7697C140.287 69.1742 141.258 68.8594 142.251 68.8685C143.228 68.8643 144.181 69.1902 144.971 69.7984C145.564 70.2691 145.759 70.7053 145.651 70.8087Z" fill="#263238"/>
<path d="M125.55 73.472C125.554 73.9544 125.38 74.4196 125.064 74.7682C124.748 75.1167 124.315 75.321 123.858 75.3375C123.635 75.3562 123.411 75.3278 123.199 75.2538C122.987 75.1798 122.791 75.0618 122.623 74.9067C122.454 74.7516 122.317 74.5625 122.219 74.3506C122.121 74.1387 122.064 73.9083 122.052 73.6729C122.047 73.1899 122.222 72.7241 122.537 72.3746C122.853 72.0252 123.286 71.8196 123.744 71.8017C123.967 71.7837 124.191 71.813 124.403 71.8876C124.615 71.9622 124.811 72.0808 124.979 72.2364C125.148 72.3919 125.285 72.5814 125.383 72.7935C125.481 73.0057 125.537 73.2364 125.55 73.472Z" fill="#263238"/>
<path d="M127.116 71.176C126.899 71.4171 125.566 70.3781 123.684 70.3839C121.802 70.3896 120.42 71.3884 120.208 71.1416C120.11 71.0325 120.327 70.602 120.931 70.1371C121.749 69.5445 122.719 69.2282 123.711 69.2301C124.687 69.2338 125.638 69.5589 126.431 70.16C127.024 70.6364 127.22 71.0727 127.116 71.176Z" fill="#263238"/>
<path d="M133.96 85.9393C133.96 85.8245 135.124 85.6121 137.023 85.3653C137.501 85.3079 137.958 85.2103 138.04 84.8602C138.082 84.336 137.97 83.811 137.719 83.3563C137.269 82.1279 136.794 80.8383 136.294 79.4875C134.319 73.9771 132.883 69.4483 133.095 69.3679C133.307 69.2875 135.081 73.6844 137.061 79.189C137.536 80.5513 137.991 81.8505 138.426 83.0865C138.606 83.6605 138.921 84.3149 138.671 85.0783C138.603 85.2576 138.496 85.4178 138.359 85.5462C138.222 85.6747 138.059 85.768 137.882 85.8187C137.617 85.8985 137.342 85.9391 137.066 85.9393C135.151 86.0426 133.965 86.0541 133.96 85.9393Z" fill="#263238"/>
<path d="M128.411 87.3169C128.716 87.3169 128.721 89.4579 130.473 90.9905C132.225 92.5231 134.401 92.2877 134.417 92.5862C134.45 92.724 133.933 93.0052 133.013 93.0339C131.814 93.0517 130.647 92.6229 129.717 91.8228C128.824 91.0537 128.251 89.9481 128.117 88.7404C128.041 87.822 128.27 87.3054 128.411 87.3169Z" fill="#263238"/>
<path d="M127.601 63.3811C127.416 63.9551 125.533 63.6681 123.319 63.9551C121.105 64.2421 119.316 64.8735 119.022 64.3856C118.891 64.156 119.201 63.6451 119.925 63.1228C120.887 62.4815 121.974 62.0795 123.105 61.9472C124.236 61.8149 125.381 61.9559 126.453 62.3594C127.296 62.7038 127.682 63.14 127.601 63.3811Z" fill="#263238"/>
<path d="M144.96 65.0514C144.628 65.5049 143.328 65.0514 141.766 65.0112C140.205 64.9711 138.883 65.3155 138.579 64.8448C138.443 64.6152 138.649 64.1617 139.231 63.7312C140.008 63.2181 140.911 62.9605 141.827 62.9912C142.742 63.0219 143.628 63.3394 144.372 63.9034C144.922 64.3626 145.107 64.862 144.96 65.0514Z" fill="#263238"/>
<path d="M107.168 77.9894C106.956 77.8918 98.736 75.3605 99.008 84.2116C99.28 93.0626 107.641 90.956 107.652 90.6977C107.663 90.4394 107.168 77.9894 107.168 77.9894Z" fill="#B78876"/>
<path d="M104.959 87.4317C104.921 87.4317 104.818 87.5465 104.573 87.6728C104.231 87.8396 103.842 87.8622 103.485 87.7359C102.587 87.4202 101.799 85.9622 101.706 84.3665C101.664 83.6085 101.781 82.85 102.049 82.1451C102.122 81.8631 102.259 81.6043 102.449 81.3911C102.639 81.178 102.875 81.0171 103.137 80.9225C103.304 80.8702 103.483 80.8812 103.643 80.9536C103.803 81.0259 103.934 81.155 104.013 81.3186C104.132 81.5597 104.083 81.7376 104.127 81.7548C104.171 81.772 104.307 81.5998 104.225 81.2325C104.171 81.0158 104.048 80.8253 103.877 80.6929C103.76 80.6042 103.628 80.5407 103.488 80.5063C103.348 80.4718 103.203 80.4669 103.061 80.492C102.719 80.5762 102.403 80.7512 102.143 81.0003C101.883 81.2494 101.688 81.5645 101.576 81.9155C101.245 82.6954 101.097 83.5481 101.146 84.401C101.255 86.1861 102.169 87.845 103.393 88.1549C103.621 88.2167 103.859 88.2234 104.089 88.1747C104.32 88.126 104.538 88.0231 104.725 87.8737C104.948 87.6498 104.992 87.4489 104.959 87.4317Z" fill="#AA6550"/>
<path d="M102.479 77.6909C103.757 77.3637 105.971 78.6093 106.515 79.8721C107.059 81.1349 107.179 82.5699 107.723 83.8384C108.267 85.107 109.496 86.2435 110.78 85.9221C111.214 85.7789 111.604 85.517 111.911 85.1632C112.217 84.8093 112.43 84.376 112.526 83.9073C112.711 82.9615 112.721 81.9868 112.554 81.0373C112.059 76.9045 111.237 72.8062 111.079 68.6389C110.922 64.4717 111.482 60.1495 113.555 56.5849C115.627 53.0204 119.43 50.4259 123.347 50.7646C125.952 50.9827 128.346 52.4177 130.935 52.8023C132.478 53.0176 134.047 52.8591 135.523 52.339C136.999 51.8188 138.344 50.9506 139.454 49.8002C139.737 49.5075 141.043 48.5948 141.043 48.5948C141.043 48.3825 140.852 46.5342 140.162 45.8569C135.021 40.8458 125.762 39.4453 118.973 41.2649C112.184 43.0844 105.819 48.1529 102.898 54.8342C99.9763 61.5156 100.847 70.9062 102.457 77.6794" fill="#263238"/>
<path d="M147.903 55.8272C147.903 55.8272 115.709 44.9212 101.782 74.2871C101.782 74.2871 99.6989 66.9341 99.6989 62.9908C99.6989 60.3561 101.189 44.6744 116.487 39.738C116.487 39.738 139.525 30.4622 147.903 55.8272Z" fill="#6548C3"/>
<path d="M120.224 56.562C120.796 57.535 121.574 58.3546 122.498 58.9561C123.421 59.5576 124.464 59.9246 125.545 60.0281C126.626 60.1316 127.714 59.9688 128.725 59.5526C129.736 59.1364 130.642 58.4781 131.371 57.6296C131.691 58.4741 132.253 59.1918 132.979 59.6819C133.706 60.172 134.559 60.41 135.42 60.3625C136.281 60.3151 137.106 59.9845 137.78 59.4172C138.453 58.8499 138.942 58.0742 139.177 57.1991C140.05 58.2255 141.117 59.0469 142.31 59.6099C143.534 60.0863 145.085 59.9027 145.884 58.8235C146.684 57.7444 146.467 56.0396 145.661 54.9261C144.782 53.8731 143.657 53.0815 142.397 52.6301C138.581 50.8591 134.387 50.1896 130.244 50.6899C126.137 51.2639 122.161 53.3763 119.593 56.8088" fill="#263238"/>
<g opacity="0.4">
<path d="M147.903 55.8272C145.224 52.8492 141.552 51.0889 137.665 50.9195C128.166 50.4776 110.394 56.1142 101.761 74.2871C101.761 74.2871 99.6771 66.9341 99.6771 62.9908C99.6771 60.3561 101.168 44.6744 116.465 39.738C116.487 39.738 139.525 30.4622 147.903 55.8272Z" fill="black"/>
</g>
<path d="M103.126 70.8488C107.897 63.14 114.479 56.7686 121.883 51.9068C129.287 47.045 141.522 42.2062 149.954 39.8528C152.489 39.1411 155.127 38.5211 157.711 38.9918C160.295 39.4625 162.819 41.2878 163.456 43.9569C164.261 47.3148 158.614 52.4923 155.965 54.5243C153.316 56.5562 147.903 59.5468 147.903 59.5468C147.903 59.5468 147.979 53.3246 138.535 52.0446C125.697 50.2709 103.126 70.8488 103.126 70.8488Z" fill="#6548C3"/>
<path d="M129.532 45.4608C129.532 45.4608 134.167 42.7515 138.829 42.1201C138.05 41.4816 137.201 40.9458 136.299 40.5244C133.769 40.9658 131.322 41.834 129.053 43.0959L129.532 45.4608Z" fill="#E0E0E0"/>
<path d="M155.66 121.378L145.449 119.002L141.293 117.905L137.833 112.246C137.833 112.246 136.201 122.365 130.005 127.813C129.166 128.537 128.183 129.051 127.128 129.318C126.074 129.584 124.977 129.596 123.918 129.351C122.52 129.041 120.877 128.662 119.658 128.318C119.397 128.243 119.114 128.145 118.81 128.031C114.33 126.276 110.598 122.879 108.294 118.462C106.923 115.891 105.764 113.25 106.162 112.246L101.315 122.836L72.7545 136.715L56.5379 178.514L87.9648 188.318L88.944 222.758L83.0253 266.175L171.931 266.238L168.776 169.64" fill="#6548C3"/>
<path d="M132.676 158.774C132.495 158.789 132.313 158.789 132.132 158.774L130.549 158.734L124.897 158.522H124.788V158.424C124.696 155.835 124.581 152.77 124.456 149.493C124.309 144.769 124.179 140.498 124.076 137.358C124.043 135.831 124.016 134.586 123.994 133.679C123.994 133.271 123.994 132.938 123.994 132.68C123.98 132.564 123.98 132.446 123.994 132.33C124.019 132.443 124.032 132.558 124.032 132.674C124.032 132.938 124.07 133.248 124.092 133.673C124.135 134.58 124.195 135.826 124.266 137.347C124.386 140.486 124.549 144.757 124.728 149.475C124.837 152.759 124.935 155.824 125.022 158.413L124.902 158.292L130.555 158.608L132.132 158.717C132.315 158.715 132.497 158.734 132.676 158.774Z" fill="#263238"/>
<path d="M127.84 144.82C127.965 144.728 128.112 144.676 128.264 144.671C128.618 144.647 128.97 144.731 129.279 144.913C129.588 145.095 129.84 145.368 130.005 145.698C130.16 146.021 130.215 146.386 130.163 146.743C130.105 147.148 129.937 147.526 129.679 147.832C129.421 148.137 129.085 148.357 128.71 148.465C128.332 148.549 127.938 148.521 127.574 148.384C127.209 148.248 126.887 148.007 126.643 147.69C126.446 147.435 126.307 147.134 126.239 146.812C126.171 146.49 126.176 146.156 126.252 145.836C126.336 145.401 126.54 145.001 126.839 144.688C127.046 144.476 127.198 144.407 127.204 144.424C127.209 144.441 127.095 144.545 126.921 144.769C126.68 145.083 126.517 145.456 126.447 145.853C126.392 146.14 126.399 146.435 126.466 146.718C126.534 147.002 126.662 147.265 126.839 147.489C127.057 147.76 127.339 147.964 127.656 148.082C127.974 148.199 128.315 148.224 128.645 148.155C128.966 148.06 129.255 147.87 129.477 147.607C129.7 147.345 129.847 147.021 129.902 146.674C129.947 146.39 129.917 146.097 129.814 145.83C129.711 145.562 129.54 145.33 129.32 145.159C129.021 144.907 128.652 144.768 128.27 144.763C127.987 144.786 127.84 144.843 127.84 144.82Z" fill="#263238"/>
<path d="M126.877 132.692C127.003 132.575 127.158 132.499 127.323 132.473C127.775 132.373 128.246 132.446 128.651 132.68C128.938 132.835 129.183 133.064 129.363 133.346C129.572 133.676 129.677 134.068 129.662 134.465C129.645 134.918 129.499 135.355 129.243 135.718C128.987 136.082 128.632 136.355 128.226 136.503C127.811 136.615 127.374 136.595 126.969 136.446C126.565 136.297 126.211 136.025 125.952 135.665C125.723 135.354 125.585 134.979 125.555 134.586C125.538 134.247 125.59 133.909 125.708 133.593C125.876 133.143 126.175 132.762 126.562 132.502C126.696 132.396 126.856 132.332 127.024 132.318C127.024 132.318 126.866 132.405 126.627 132.6C126.29 132.873 126.037 133.244 125.898 133.667C125.789 133.971 125.755 134.298 125.801 134.619C125.847 134.94 125.97 135.243 126.159 135.498C126.389 135.808 126.699 136.04 127.051 136.168C127.403 136.295 127.783 136.312 128.145 136.216C128.495 136.085 128.801 135.848 129.024 135.534C129.248 135.221 129.379 134.845 129.401 134.454C129.416 134.132 129.344 133.813 129.195 133.531C129.046 133.25 128.825 133.019 128.558 132.864C128.192 132.636 127.767 132.54 127.345 132.588C127.046 132.628 126.888 132.715 126.877 132.692Z" fill="#263238"/>
<path d="M123.983 179.019C123.983 179.019 124.027 178.99 124.119 178.956L124.527 178.79C124.892 178.658 125.408 178.416 126.067 178.095C127.905 177.117 129.592 175.851 131.071 174.341C133.246 172.081 135.168 169.566 136.8 166.845C138.84 163.536 140.704 160.11 142.381 156.581C145.398 150.151 148.045 143.534 150.307 136.767C151.194 134.173 151.885 132.066 152.369 130.614L152.913 128.938C152.973 128.765 153.027 128.622 153.065 128.507C153.081 128.457 153.101 128.409 153.125 128.364C153.121 128.417 153.11 128.469 153.092 128.519C153.06 128.633 153.016 128.777 152.967 128.961C152.842 129.368 152.674 129.931 152.461 130.683C152.01 132.146 151.346 134.264 150.476 136.865C148.272 143.65 145.651 150.276 142.631 156.702C140.95 160.24 139.075 163.673 137.017 166.982C135.366 169.718 133.416 172.24 131.207 174.496C129.704 176.004 127.986 177.253 126.116 178.198C125.604 178.446 125.079 178.663 124.543 178.847L124.124 178.985C124.079 179.004 124.032 179.015 123.983 179.019Z" fill="#263238"/>
<path d="M142.713 167.556C142.947 167.556 148.36 167.166 148.36 167.166C148.36 167.166 146.124 171.333 143.796 172.906H139.057L142.713 167.556Z" fill="#FAFAFA"/>
<path d="M123.036 191.641C123.129 191.548 123.231 191.465 123.341 191.395L124.255 190.729C125.044 190.155 126.181 189.294 127.546 188.186C130.266 185.988 133.889 182.704 137.763 178.95C139.699 177.073 141.571 175.305 143.17 173.606C144.605 172.117 145.938 170.521 147.157 168.831C147.976 167.691 148.704 166.481 149.333 165.214C149.573 164.772 149.72 164.411 149.834 164.17C149.886 164.043 149.949 163.922 150.024 163.808C149.989 163.94 149.944 164.069 149.888 164.193C149.79 164.44 149.654 164.813 149.431 165.266C148.834 166.562 148.125 167.797 147.315 168.957C146.112 170.676 144.786 172.295 143.349 173.801C141.745 175.523 139.884 177.297 137.948 179.168C134.074 182.922 130.446 186.194 127.666 188.352C126.279 189.437 125.12 190.264 124.315 190.821C123.907 191.096 123.586 191.297 123.368 191.44C123.265 191.52 123.154 191.588 123.036 191.641Z" fill="#263238"/>
<path d="M107.783 255.43C107.783 255.43 107.783 255.378 107.848 255.292C107.913 255.206 107.984 255.068 108.071 254.913C108.272 254.586 108.577 254.104 108.985 253.496C109.801 252.29 111.063 250.591 112.728 248.594C116.079 244.627 120.773 239.215 125.941 233.222L139.264 217.902L143.317 213.31L144.405 212.064L144.699 211.749L144.807 211.645C144.807 211.645 144.78 211.691 144.72 211.766L144.448 212.104L143.36 213.39L139.373 218.068L126.154 233.406L112.88 248.72C111.199 250.695 109.915 252.365 109.072 253.547C108.653 254.121 108.332 254.609 108.12 254.931L107.875 255.292C107.848 255.341 107.817 255.387 107.783 255.43Z" fill="#263238"/>
<path d="M154.953 121.114C155.421 121.854 165.931 123.089 168.504 125.798C171.077 128.507 196.792 149.217 196.792 149.217L178.465 175.242L166.638 172.493L154.953 121.114Z" fill="#6548C3"/>
<path opacity="0.4" d="M193.675 146.691L173.128 174.002L178.465 175.242L196.77 149.188L193.675 146.691Z" fill="black"/>
<path d="M160.551 148.207C160.459 147.911 160.388 147.607 160.339 147.3C160.279 147.007 160.208 146.646 160.159 146.221C160.11 145.796 160.028 145.314 160.001 144.774C159.974 144.235 159.92 143.626 159.92 143.012C159.92 142.398 159.92 141.703 159.969 140.992C160.074 139.444 160.302 137.908 160.649 136.4C161.019 134.899 161.508 133.434 162.112 132.02C162.4 131.377 162.656 130.757 162.966 130.206C163.276 129.655 163.543 129.144 163.82 128.691C164.098 128.237 164.364 127.847 164.604 127.497C164.801 127.197 165.014 126.907 165.24 126.63C165.418 126.381 165.617 126.148 165.833 125.936C165.684 126.204 165.515 126.46 165.327 126.699C165.158 126.94 164.952 127.233 164.734 127.594C164.516 127.956 164.239 128.341 163.989 128.806C163.739 129.271 163.445 129.764 163.173 130.327C162.901 130.889 162.629 131.475 162.351 132.129C161.778 133.537 161.309 134.99 160.948 136.474C160.609 137.963 160.378 139.477 160.257 141.003C160.219 141.709 160.17 142.381 160.186 143.006C160.203 143.632 160.186 144.218 160.23 144.728C160.273 145.239 160.306 145.744 160.344 146.169C160.382 146.594 160.431 146.955 160.475 147.248C160.529 147.564 160.555 147.885 160.551 148.207Z" fill="#263238"/>
<path d="M168.776 169.606C167.934 167.882 167.176 166.114 166.508 164.308C165.75 162.542 165.078 160.738 164.495 158.9C165.337 160.623 166.096 162.389 166.769 164.193C167.528 165.958 168.198 167.765 168.776 169.606Z" fill="#263238"/>
<path d="M87.9648 150.698C87.9213 150.698 87.4806 149.866 86.6483 148.574C85.5623 146.892 84.3194 145.329 82.9382 143.908C81.5501 142.497 80.0341 141.234 78.4121 140.136C77.1609 139.298 76.3395 138.862 76.3613 138.816C76.5698 138.877 76.7706 138.964 76.9597 139.074C77.492 139.341 78.0113 139.636 78.5155 139.958C80.1889 141.011 81.7407 142.265 83.1395 143.695C84.5337 145.13 85.7675 146.728 86.8169 148.459C87.2141 149.125 87.5133 149.676 87.6982 150.072C87.8111 150.269 87.9006 150.479 87.9648 150.698Z" fill="#263238"/>
<path opacity="0.4" d="M56.5379 178.497L57.8054 175.242L92.567 185.23L91.1907 189.311L56.5379 178.497Z" fill="black"/>
<path d="M149.339 165.633H162.574V171.373L145.64 171.259C145.64 171.259 148.256 167.935 149.339 165.633Z" fill="#FAFAFA"/>
<g opacity="0.2">
<path d="M102.131 124.099C102.609 128.576 103.132 133.197 105.231 137.123C107.331 141.049 111.438 144.143 115.665 143.483C118.483 143.041 120.871 141.055 122.792 138.828C124.712 136.601 126.322 134.081 128.417 132.043C129.683 133.482 131.099 134.767 132.638 135.872C134.193 136.983 136.059 137.503 137.931 137.347C139.775 137.111 140.793 136.337 141.375 134.477C139.405 135.12 138.323 135.022 136.359 134.626C134.191 134.187 132.155 133.203 130.424 131.756C129.271 130.797 128.852 129.357 127.388 129.46C126.034 129.54 124.973 130.671 124.081 131.756C122.641 133.496 121.061 135.101 119.359 136.555C117.727 137.915 116.149 138.851 114.071 138.787C110.65 138.707 107.848 135.872 105.96 132.858C104.218 130.08 102.931 127.012 102.152 123.783" fill="black"/>
</g>
<path d="M142.191 118.514C142.222 118.618 142.242 118.726 142.251 118.835C142.251 119.048 142.316 119.358 142.354 119.759C142.436 120.563 142.517 121.728 142.55 123.203C142.623 126.977 142.282 130.746 141.532 134.437V134.528V134.62H141.451C139.517 135.099 137.499 135.041 135.592 134.454C134.033 134.014 132.56 133.287 131.24 132.307C130.347 131.667 129.546 130.893 128.863 130.011C128.679 129.773 128.508 129.524 128.351 129.265C128.29 129.177 128.238 129.082 128.194 128.984C129.081 130.208 130.146 131.277 131.349 132.152C132.661 133.088 134.114 133.782 135.646 134.207C137.512 134.763 139.481 134.812 141.369 134.35L141.266 134.46V134.368C142.007 130.696 142.372 126.951 142.354 123.198C142.354 121.757 142.294 120.592 142.251 119.782C142.251 119.409 142.212 119.105 142.196 118.858C142.179 118.744 142.177 118.628 142.191 118.514Z" fill="#263238"/>
<path d="M125.664 129.839C125.621 129.961 125.562 130.077 125.49 130.183C125.308 130.502 125.108 130.808 124.892 131.102C124.079 132.171 123.184 133.168 122.215 134.081C121.611 134.655 120.931 135.292 120.197 135.946C119.827 136.273 119.457 136.618 119.044 136.962C118.618 137.301 118.169 137.606 117.7 137.875C116.693 138.461 115.581 138.819 114.436 138.925C113.186 139.037 111.934 138.745 110.845 138.087C109.786 137.421 108.836 136.578 108.033 135.59C107.272 134.696 106.563 133.753 105.911 132.766C104.813 131.093 103.885 129.301 103.142 127.422C102.645 126.159 102.238 124.858 101.924 123.531C101.81 123.06 101.739 122.693 101.695 122.44C101.665 122.314 101.647 122.185 101.641 122.055C101.691 122.175 101.727 122.3 101.75 122.428C101.815 122.675 101.902 123.037 102.027 123.502C102.384 124.809 102.818 126.092 103.327 127.342C104.09 129.192 105.028 130.956 106.129 132.605C106.778 133.578 107.483 134.508 108.24 135.389C109.017 136.351 109.935 137.175 110.96 137.829C112.001 138.456 113.198 138.736 114.392 138.632C115.505 138.531 116.586 138.192 117.569 137.634C118.031 137.376 118.473 137.08 118.891 136.75C119.288 136.428 119.669 136.078 120.039 135.757C120.779 135.108 121.464 134.5 122.074 133.926C123.046 133.041 123.955 132.082 124.794 131.056C125.082 130.688 125.294 130.384 125.436 130.177C125.502 130.058 125.579 129.945 125.664 129.839Z" fill="#263238"/>
<path d="M113.946 195.791L118.14 189.34C118.14 189.34 121.024 178.767 120.632 177.286C120.24 175.805 118.967 170.294 119.267 170.225C119.566 170.157 122.705 168.928 124.407 173.348C125.468 176.103 125.816 179.731 125.931 182.073C125.943 182.362 126.015 182.645 126.141 182.903C126.267 183.16 126.445 183.385 126.661 183.563C126.878 183.741 127.129 183.867 127.396 183.933C127.663 183.999 127.941 184.002 128.21 183.944C131.109 183.313 135.935 182.354 137.083 182.647C138.747 183.066 140.238 185.304 140.379 186.056C140.521 186.808 139.378 188.502 139.378 188.502C139.378 188.502 140.793 189.265 141.228 190.419C141.288 190.574 141.337 190.729 141.38 190.878C141.513 191.34 141.529 191.832 141.427 192.303C141.325 192.774 141.108 193.209 140.798 193.564L140.352 194.081C140.352 194.081 142.12 194.592 142.338 195.659C142.456 196.439 142.435 197.235 142.278 198.007L140.619 199.815C141.081 200.27 141.384 200.877 141.478 201.537C141.565 202.524 139.079 204.981 139.079 204.981L128.411 208.999L124.179 210.147L113.946 195.791Z" fill="#B78876"/>
<path d="M139.411 188.513C138.192 188.859 136.957 189.141 135.712 189.357C134.488 189.673 133.25 189.922 132.002 190.103C132.336 189.931 132.688 189.802 133.052 189.718C133.71 189.523 134.629 189.282 135.657 189.064C136.685 188.846 137.616 188.685 138.301 188.593C138.666 188.514 139.039 188.487 139.411 188.513Z" fill="#AA6550"/>
<path d="M140.385 194.081C139.478 194.53 138.532 194.885 137.561 195.143C136.619 195.5 135.646 195.761 134.656 195.923C135.563 195.475 136.508 195.119 137.48 194.862C138.422 194.505 139.395 194.243 140.385 194.081Z" fill="#AA6550"/>
<path d="M141.021 199.574C140.065 200.178 139.063 200.695 138.024 201.118C137.023 201.635 135.982 202.062 134.912 202.392C135.868 201.789 136.87 201.272 137.909 200.848C138.91 200.331 139.951 199.905 141.021 199.574Z" fill="#AA6550"/>
<path d="M89.3683 235.661L128.602 207.891L118.701 188.949L82.8947 208.379L86.9584 187.968L62.6579 180.38L56.576 215.336C55.6403 230.88 67.456 243.428 81.6979 239.347C84.428 238.567 87.0189 237.323 89.3683 235.661Z" fill="#B78876"/>
<path d="M77.7104 219.366C77.6397 219.2 77.5938 219.024 77.5744 218.843C77.4937 218.36 77.4482 217.87 77.4384 217.38C77.4179 215.746 77.7647 214.131 78.4503 212.667C79.1453 211.206 80.162 209.943 81.4151 208.982C81.7884 208.69 82.1852 208.432 82.601 208.213C82.7501 208.121 82.9115 208.053 83.0797 208.012C83.0797 208.064 82.4432 208.391 81.5347 209.16C80.3452 210.14 79.3781 211.388 78.7042 212.813C78.0304 214.239 77.6667 215.804 77.6397 217.397C77.6125 218.602 77.792 219.36 77.7104 219.366Z" fill="#AA6550"/>
<path d="M178.465 175.242C178.709 174.886 206.405 192.692 206.405 192.692L215.283 235.369L228.061 240.317C228.061 240.317 232.049 192.824 229.013 185.431C225.978 178.038 195.204 151.438 195.204 151.438L178.465 175.242Z" fill="#B78876"/>
<path d="M212.454 189.42C211.837 190.398 211.016 191.215 210.055 191.808C209.143 192.485 208.098 192.937 206.997 193.128C207.991 192.658 208.961 192.133 209.902 191.555C210.79 190.894 211.642 190.181 212.454 189.42Z" fill="#AA6550"/>
<path d="M145.156 175.334L147.326 216.295L191.586 213.138L190.248 182.647L183.801 173.492L145.156 175.334Z" fill="#263238"/>
<path d="M135.097 217.207C135.228 217.994 138.987 255.091 138.987 255.091L204.86 250.264L216.006 248.686L210.865 214.142L202.994 212.15L135.097 217.207Z" fill="#6548C3"/>
<path opacity="0.4" d="M202.994 212.145L135.097 217.207C135.228 217.994 138.987 255.091 138.987 255.091L207.569 250.057L202.994 212.145Z" fill="black"/>
<path d="M184.949 213.608L147.326 216.295L145.156 175.334L183.801 173.492L184.949 213.608Z" fill="#455A64"/>
<path d="M159.185 174.668L159.98 187.29L161.992 186.074L163.108 187.29L164.495 186.074L166.638 187.29V174.312L159.185 174.668Z" fill="#263238"/>
<path d="M174.912 214.469L172.339 183.726L197.488 191.039L199.915 212.259L174.912 214.469Z" fill="#6548C3"/>
<path d="M197.472 191.044C197.427 191.123 197.374 191.196 197.314 191.263L196.83 191.865L194.98 194.092L188.556 201.698L188.458 201.813L188.355 201.704L184.96 197.915L176 187.928L173.307 184.874L172.584 184.036C172.494 183.943 172.416 183.839 172.35 183.726C172.45 183.805 172.542 183.894 172.627 183.99L173.389 184.794L176.142 187.778L185.161 197.709L188.578 201.503H188.376L194.904 193.966L196.814 191.796L197.331 191.222C197.372 191.158 197.419 191.099 197.472 191.044Z" fill="#263238"/>
<path d="M183.388 196.739C183.459 196.779 181.663 200.406 179.384 204.843C177.105 209.28 175.201 212.845 175.13 212.805C175.059 212.765 176.854 209.137 179.134 204.7C181.413 200.263 183.328 196.698 183.388 196.739Z" fill="#263238"/>
<path d="M199.327 212.259C199.262 212.3 197.521 209.361 195.437 205.699C193.354 202.037 191.716 199.023 191.787 198.977C191.858 198.931 193.593 201.876 195.677 205.544C197.76 209.212 199.398 212.219 199.327 212.259Z" fill="#263238"/>
<path d="M188.42 213.27L186.777 193.691L202.792 198.351L204.337 211.863L188.42 213.27Z" fill="#6548C3"/>
<path opacity="0.4" d="M188.42 213.27L186.777 193.691L202.792 198.351L204.337 211.863L188.42 213.27Z" fill="white"/>
<path d="M202.792 198.351C202.678 198.544 202.545 198.722 202.395 198.885C202.096 199.258 201.704 199.735 201.231 200.315L197.151 205.171L197.053 205.291L196.95 205.176L194.774 202.766C192.538 200.292 190.525 198.036 189.078 196.394L187.381 194.437C187.161 194.207 186.961 193.957 186.782 193.691C187.024 193.893 187.25 194.115 187.457 194.356L189.225 196.245C190.71 197.852 192.745 200.085 194.98 202.559L197.156 204.975H196.928L201.079 200.188L202.308 198.816C202.455 198.646 202.617 198.49 202.792 198.351Z" fill="#263238"/>
<path d="M193.816 201.979C193.882 202.019 192.761 204.338 191.309 207.145C190.475 208.876 189.556 210.561 188.556 212.191C189.304 210.424 190.139 208.699 191.058 207.025C191.892 205.292 192.813 203.608 193.816 201.979Z" fill="#263238"/>
<path d="M203.967 211.863C203.048 210.535 202.205 209.149 201.443 207.713C200.598 206.329 199.837 204.889 199.164 203.403C200.92 206.122 202.524 208.947 203.967 211.863Z" fill="#263238"/>
<path d="M198.625 197.525V199.098L200.964 199.385L201.09 198.185L198.625 197.525Z" fill="white"/>
<path d="M190.367 189.541V191.837L194.785 192.606L195.029 190.849L190.367 189.541Z" fill="white"/>
<path d="M173.128 225.915L172.91 214.469L164.114 215.095L165.055 226.724L173.128 225.915Z" fill="#6548C3"/>
<path d="M201.814 231.928L187.045 233.407L188.284 247.19L203.053 245.711L201.814 231.928Z" fill="#FAFAFA"/>
<path d="M203.032 245.729C203.014 245.642 203.001 245.554 202.994 245.465C202.994 245.276 202.945 245.029 202.912 244.719C202.847 244.053 202.749 243.106 202.629 241.918C202.395 239.496 202.085 236.075 201.672 231.959L201.802 232.074L187.043 233.572C187.011 233.607 187.283 233.268 187.169 233.411V233.515V233.635V233.865L187.212 234.336L187.294 235.265C187.354 235.88 187.408 236.488 187.462 237.096C187.566 238.308 187.675 239.49 187.778 240.65C187.979 242.946 188.175 245.155 188.349 247.182L188.213 247.067L198.87 246.068L201.895 245.798L202.705 245.735C202.801 245.727 202.898 245.727 202.994 245.735C202.91 245.756 202.824 245.769 202.738 245.775L201.955 245.873L198.963 246.206L188.24 247.354H188.115V247.222C187.925 245.19 187.723 242.997 187.511 240.69C187.41 239.542 187.303 238.357 187.19 237.137C187.136 236.528 187.082 235.92 187.027 235.3C187 234.996 186.973 234.686 186.94 234.376L186.902 233.905V233.675V233.555V233.452C186.788 233.595 187.054 233.251 187.033 233.285L201.797 231.833H201.916V231.959C202.265 236.109 202.553 239.565 202.76 242.01C202.852 243.187 202.923 244.122 202.977 244.788C202.977 245.092 203.015 245.333 203.026 245.517C203.033 245.588 203.035 245.659 203.032 245.729Z" fill="#263238"/>
<path d="M200.638 235.248C200.638 235.334 198.065 235.684 194.872 236.04C192.95 236.307 191.016 236.472 189.078 236.534C189.078 236.454 191.651 236.098 194.844 235.742C198.038 235.386 200.633 235.168 200.638 235.248Z" fill="#263238"/>
<path d="M200.551 237.59C200.038 237.785 199.508 237.925 198.968 238.009C197.978 238.216 196.602 238.457 195.073 238.646C193.544 238.836 192.146 238.939 191.14 238.973C190.597 239.025 190.051 239.025 189.508 238.973C190.046 238.861 190.592 238.796 191.14 238.778C192.141 238.681 193.523 238.549 195.046 238.359C196.569 238.17 197.945 237.963 198.941 237.785C199.472 237.678 200.01 237.613 200.551 237.59Z" fill="#263238"/>
<path d="M201.177 242.71C200.661 242.903 200.129 243.044 199.588 243.129C198.598 243.336 197.222 243.577 195.693 243.766C194.164 243.956 192.772 244.059 191.76 244.094C191.217 244.149 190.671 244.149 190.128 244.094C190.666 243.981 191.212 243.916 191.76 243.898C192.761 243.807 194.148 243.669 195.671 243.479C197.195 243.29 198.571 243.083 199.566 242.905C200.098 242.798 200.636 242.733 201.177 242.71Z" fill="#263238"/>
<path d="M200.431 240.087C198.656 240.511 196.86 240.832 195.051 241.051C193.25 241.374 191.434 241.596 189.611 241.717C191.388 241.3 193.184 240.978 194.991 240.753C196.793 240.434 198.609 240.211 200.431 240.087Z" fill="#263238"/>
<path d="M213.471 261.434C213.471 261.434 225.629 252.945 226.565 248.605C227.501 244.266 228.061 240.317 228.061 240.317L215.07 234.64L216.36 239.576C216.36 239.576 211.703 242.498 211.224 246.039C210.909 248.399 204.887 252.44 204.887 252.44C204.386 251.801 203.748 251.296 203.027 250.968C202.305 250.64 201.52 250.497 200.736 250.551L195.677 250.93L199.099 259.063L213.471 261.434Z" fill="#B78876"/>
<path d="M218.22 249.799C218.043 249.913 217.851 249.996 217.649 250.046C217.268 250.178 216.702 250.31 216.017 250.54C215.243 250.83 214.527 251.27 213.906 251.837C213.123 252.541 212.247 253.121 211.306 253.559C209.564 254.342 207.63 254.513 205.79 254.047C205.466 253.981 205.156 253.859 204.87 253.685C204.753 253.615 204.659 253.51 204.599 253.384C204.539 253.257 204.516 253.114 204.533 252.973C204.542 252.886 204.572 252.802 204.619 252.73C204.667 252.658 204.731 252.6 204.805 252.56C204.914 252.52 204.974 252.56 204.974 252.56C204.974 252.56 204.914 252.56 204.832 252.623C204.775 252.667 204.729 252.724 204.696 252.789C204.663 252.855 204.644 252.928 204.642 253.002C204.632 253.12 204.657 253.239 204.713 253.342C204.77 253.445 204.855 253.527 204.957 253.576C205.235 253.72 205.533 253.819 205.839 253.869C207.639 254.255 209.508 254.055 211.197 253.295C212.117 252.863 212.975 252.294 213.743 251.607C214.395 251.036 215.145 250.604 215.952 250.333C216.648 250.126 217.214 250.029 217.584 249.925C217.792 249.866 218.005 249.823 218.22 249.799Z" fill="#AA6550"/>
<path d="M209.799 256.383C209.799 256.429 209.173 256.05 208.14 255.596C206.792 255.015 205.372 254.642 203.924 254.489C203.5 254.443 203.081 254.431 202.678 254.42H202.602L202.558 254.351C201.929 253.311 201.169 252.365 200.301 251.538C199.643 250.913 199.213 250.591 199.213 250.557C199.213 250.522 199.343 250.603 199.55 250.74C199.844 250.941 200.127 251.157 200.399 251.389C201.326 252.187 202.128 253.134 202.776 254.196L202.662 254.127C203.075 254.127 203.5 254.127 203.935 254.196C205.412 254.346 206.855 254.756 208.205 255.407C208.612 255.602 209.006 255.825 209.386 256.073C209.538 256.153 209.677 256.257 209.799 256.383Z" fill="#AA6550"/>
<path d="M213.085 254.052C213.085 254.133 212.263 254.46 211.306 255.034C210.348 255.608 209.647 256.211 209.592 256.142C210.49 255.037 211.725 254.298 213.085 254.052Z" fill="#AA6550"/>
<path d="M219.673 238.784C219.673 238.876 218.824 238.784 217.856 239.042C216.887 239.301 216.224 239.829 216.148 239.754C216.597 239.272 217.163 238.927 217.783 238.756C218.404 238.585 219.057 238.595 219.673 238.784Z" fill="#AA6550"/>
<path d="M42.3069 233.888C43.9062 235.897 46.6099 234.927 47.7795 233.497C48.9491 232.068 49.3299 230.128 49.6726 228.274C50.4451 224.038 51.2176 219.601 50.0208 215.474C49.712 214.218 49.0815 213.076 48.1984 212.173C47.7515 211.731 47.2021 211.42 46.6054 211.272C46.0086 211.124 45.3855 211.144 44.7984 211.33C43.4384 211.846 42.6931 213.367 42.1872 214.774C40.6874 218.984 40.0964 223.494 40.4573 227.976C40.6259 230.065 41.0448 232.229 42.3069 233.848" fill="#6548C3"/>
<g opacity="0.2">
<path d="M42.3069 233.888C43.9062 235.897 46.6099 234.927 47.7795 233.497C48.9491 232.068 49.3299 230.128 49.6726 228.274C50.4451 224.038 51.2176 219.601 50.0208 215.474C49.712 214.218 49.0815 213.076 48.1984 212.173C47.7515 211.731 47.2021 211.42 46.6054 211.272C46.0086 211.124 45.3855 211.144 44.7984 211.33C43.4384 211.846 42.6931 213.367 42.1872 214.774C40.6874 218.984 40.0964 223.494 40.4573 227.976C40.6259 230.065 41.0448 232.229 42.3069 233.848" fill="black"/>
</g>
<path d="M48.5466 244.237C50.7661 242.75 53.4915 242.326 56.1082 242.515C57.5171 242.63 58.9968 242.928 60.0359 243.939C61.0749 244.949 61.4122 246.866 60.4112 247.911C59.7545 248.476 58.9306 248.781 58.0829 248.772C56.0592 248.938 53.7853 248.772 52.2839 250.212C51.4243 251.027 50.913 252.302 49.8413 252.767C49.3021 252.952 48.7203 252.948 48.1836 252.754C47.6469 252.561 47.1844 252.188 46.8656 251.693C46.2482 250.672 46.028 249.438 46.2509 248.249C46.3167 247.44 46.5579 246.657 46.9559 245.961C47.354 245.265 47.8982 244.676 48.5466 244.237Z" fill="#6548C3"/>
<path d="M38.6621 237.332C40.0439 235.254 40.0983 232.407 39.2061 230.048C38.3139 227.689 36.584 225.783 34.6583 224.268C32.3787 222.486 29.7917 221.192 27.0423 220.456C25.9747 220.117 24.8505 220.023 23.7456 220.181C23.2032 220.275 22.6903 220.506 22.2501 220.854C21.8099 221.202 21.4552 221.656 21.216 222.178C20.5904 223.774 21.4717 225.559 22.3856 226.994C23.9936 229.524 25.7851 231.919 27.744 234.158C29.3271 235.954 31.1168 237.705 33.3527 238.376C35.5885 239.048 37.8243 238.727 38.8416 237.039" fill="#6548C3"/>
<path d="M44.9453 266.21C44.9921 265.883 45.0067 265.552 44.9888 265.222C44.9888 264.511 44.9888 263.615 44.9888 262.548C45.0029 261.226 45.0828 259.906 45.2281 258.593C45.424 256.994 45.7424 255.414 46.1801 253.869C46.6038 252.326 47.2339 250.855 48.0515 249.501C48.7168 248.397 49.607 247.463 50.6573 246.768C51.3689 246.307 52.1457 245.968 52.9584 245.764C53.2668 245.717 53.5708 245.642 53.8669 245.54C53.5535 245.524 53.2395 245.548 52.9312 245.609C52.0815 245.761 51.2639 246.07 50.5158 246.522C49.407 247.21 48.4633 248.159 47.7577 249.294C46.906 250.673 46.2499 252.175 45.8102 253.754C45.3682 255.322 45.0551 256.928 44.8745 258.553C44.7474 259.878 44.6948 261.21 44.7168 262.542C44.7168 263.69 44.7821 264.597 44.8201 265.228C44.8261 265.559 44.8681 265.889 44.9453 266.21Z" fill="#263238"/>
<path d="M44.9453 264.149C44.9597 263.998 44.9597 263.846 44.9453 263.696C44.9453 263.357 44.88 262.926 44.8365 262.404C44.7386 261.285 44.6026 259.66 44.4883 257.651C44.2435 253.633 44.1021 248.077 44.2163 241.941C44.3306 235.805 44.7168 230.254 45.1575 226.259C45.2554 225.255 45.3587 224.354 45.4675 223.562C45.5763 222.769 45.6525 222.086 45.7395 221.535C45.8266 220.984 45.8701 220.588 45.9191 220.25C45.9477 220.1 45.9605 219.948 45.9571 219.796C45.8998 219.937 45.8614 220.086 45.8429 220.238C45.7776 220.571 45.696 220.99 45.5927 221.507C45.4893 222.023 45.3751 222.741 45.2554 223.533C45.1357 224.325 45.0051 225.22 44.8855 226.225C44.2691 231.438 43.9186 236.682 43.8355 241.935C43.7213 248.083 43.9008 253.656 44.2163 257.674C44.3632 259.683 44.5427 261.308 44.6896 262.421C44.7603 262.944 44.8256 263.368 44.8691 263.707C44.8801 263.857 44.9056 264.005 44.9453 264.149Z" fill="#263238"/>
<path d="M44.064 253.45C44.0589 252.997 44.0189 252.546 43.9443 252.101C43.8192 251.24 43.6016 250 43.2426 248.485C42.8089 246.716 42.2823 244.974 41.665 243.267C40.9214 241.17 40.0379 239.131 39.0211 237.165C37.2349 233.538 34.8386 230.285 31.9491 227.562C31.4456 227.1 30.917 226.669 30.3661 226.271C30.1267 226.093 29.9146 225.915 29.697 225.777L29.0986 225.416C28.7342 225.179 28.3542 224.97 27.9616 224.79C27.9072 224.882 29.5936 225.72 31.7696 227.78C34.5701 230.534 36.9047 233.772 38.673 237.355C39.6864 239.298 40.5786 241.31 41.344 243.376C42.0621 245.282 42.5843 247.044 42.976 248.542C43.3677 250.04 43.6234 251.263 43.792 252.112C43.8479 252.565 43.9388 253.012 44.064 253.45Z" fill="#263238"/>
</svg>
