<?xml version="1.0" encoding="utf-8"?>
<!-- Generator: Adobe Illustrator 27.5.0, SVG Export Plug-In . SVG Version: 6.00 Build 0)  -->
<svg version="1.1" xmlns="http://www.w3.org/2000/svg" xmlns:xlink="http://www.w3.org/1999/xlink" x="0px" y="0px"
	 viewBox="0 0 500 500" style="enable-background:new 0 0 500 500;" xml:space="preserve">
<g id="BACKGROUND">
</g>
<g id="OBJECTS">
	<g>
		<path style="fill:#4E4ECE;" d="M375.14,362.069c-1.295,0-2.344-1.05-2.344-2.344v-16.872c0-3.378-2.748-6.126-6.126-6.126h-30.336
			c-3.378,0-6.126,2.748-6.126,6.126v16.195c0,1.295-1.05,2.344-2.344,2.344c-1.295,0-2.344-1.05-2.344-2.344v-16.195
			c0-5.964,4.851-10.815,10.815-10.815h30.336c5.964,0,10.815,4.851,10.815,10.815v16.872
			C377.484,361.019,376.434,362.069,375.14,362.069z"/>
		<path style="fill:#ED6756;" d="M301.058,444.707h101.16c4.525,0,8.193-3.668,8.193-8.193v-72.37c0-4.525-3.668-8.193-8.193-8.193
			h-101.16c-4.525,0-8.193,3.668-8.193,8.193v72.37C292.865,441.039,296.533,444.707,301.058,444.707z"/>
		<g>
			<polygon style="fill:#FFFFFF;" points="379.6,389.432 362.535,389.432 362.535,372.367 340.742,372.367 340.742,389.432 
				323.676,389.432 323.676,411.225 340.742,411.225 340.742,428.29 362.535,428.29 362.535,411.225 379.6,411.225 			"/>
		</g>
	</g>
	<g>
		<path style="fill:#FFCFC0;" d="M144.29,240.065L144.29,240.065c1.001-0.927,1.731-2.109,2.11-3.42l0.56-1.939
			c0.247-0.854,1.018-1.443,1.907-1.449c2.365-0.016,6.747,0.169,7.243,1.729c0.684,2.149-7.424,6.935-7.424,6.935l-1.905,1.934
			L144.29,240.065z"/>
		<g>
			<path style="fill:#B3B3FF;" d="M182.244,270.368l-5.919,4.148L117.1,190.01c-0.977-1.395-0.639-3.317,0.755-4.294l0.869-0.609
				c1.395-0.977,3.317-0.639,4.295,0.755L182.244,270.368z"/>
			<g>
				
					<line style="fill:none;stroke:#4E4ECE;stroke-width:0.5;stroke-linecap:round;stroke-linejoin:round;stroke-miterlimit:10;" x1="122.125" y1="188.329" x2="180.484" y2="271.602"/>
				
					<line style="fill:none;stroke:#4E4ECE;stroke-width:0.5;stroke-linecap:round;stroke-linejoin:round;stroke-miterlimit:10;" x1="124.199" y1="191.289" x2="122.199" y2="192.691"/>
				
					<line style="fill:none;stroke:#4E4ECE;stroke-width:0.5;stroke-linecap:round;stroke-linejoin:round;stroke-miterlimit:10;" x1="131.88" y1="202.248" x2="129.88" y2="203.65"/>
				
					<line style="fill:none;stroke:#4E4ECE;stroke-width:0.5;stroke-linecap:round;stroke-linejoin:round;stroke-miterlimit:10;" x1="139.56" y1="213.207" x2="137.56" y2="214.609"/>
				
					<line style="fill:none;stroke:#4E4ECE;stroke-width:0.5;stroke-linecap:round;stroke-linejoin:round;stroke-miterlimit:10;" x1="147.24" y1="224.166" x2="145.24" y2="225.568"/>
				
					<line style="fill:none;stroke:#4E4ECE;stroke-width:0.5;stroke-linecap:round;stroke-linejoin:round;stroke-miterlimit:10;" x1="154.92" y1="235.125" x2="152.921" y2="236.527"/>
				
					<line style="fill:none;stroke:#4E4ECE;stroke-width:0.5;stroke-linecap:round;stroke-linejoin:round;stroke-miterlimit:10;" x1="162.601" y1="246.084" x2="160.601" y2="247.486"/>
				
					<line style="fill:none;stroke:#4E4ECE;stroke-width:0.5;stroke-linecap:round;stroke-linejoin:round;stroke-miterlimit:10;" x1="170.281" y1="257.043" x2="168.281" y2="258.445"/>
			</g>
			<path style="fill:#ED6756;" d="M137.002,215.004l39.745,56.712c0.141,0.201,0.086,0.469-0.106,0.604l-0.01,0.007
				c-0.192,0.135-0.463,0.095-0.604-0.106l-39.745-56.712L137.002,215.004z"/>
			<path style="fill:#FFFFFF;" d="M120.823,191.919l16.179,23.086l-0.72,0.505l-16.179-23.086c-0.134-0.192-0.086-0.469,0.106-0.604
				l0.01-0.007C120.411,191.678,120.689,191.727,120.823,191.919z"/>
		</g>
		
			<path style="fill:#FFCFC0;stroke:#FF8E77;stroke-width:0.5;stroke-linecap:round;stroke-linejoin:round;stroke-miterlimit:10;" d="
			M147.415,237.477c0,0,3.419-3.37,4.054-2.344c0.635,1.026-1.709,2.686-1.709,2.686s0.098,1.709-1.221,2.833"/>
	</g>
	<g>
		<linearGradient id="SVGID_1_" gradientUnits="userSpaceOnUse" x1="316.4732" y1="312.4169" x2="302.1141" y2="353.736">
			<stop  offset="0" style="stop-color:#FFCFC0"/>
			<stop  offset="1" style="stop-color:#FF8E77"/>
		</linearGradient>
		<path style="fill:url(#SVGID_1_);" d="M337.96,310.329l-10.165-39.693l-26.561,14.931l-4.066,2.286l1.221,4.495l7.959,29.281
			l-11.171,16.07l-13.257,19.095l14.265,28.917c0,0,2.801-2.719,7.045-7.197c7.795-8.24,20.478-22.4,29.562-36.431
			C338.874,332.694,340.738,321.172,337.96,310.329z"/>
		<path style="fill:#FFCFC0;" d="M279.914,195.14c-1.348,8.416-4.396,15.473-8.065,21.251
			c-9.096,14.347-21.966,20.841-21.966,20.841c-12.484-6.119-23.924-13.668-33.137-20.501c-8.24-6.095-14.711-11.64-18.555-15.086
			l43.628-18.813L279.914,195.14z"/>
		<path style="fill:#171659;" d="M295.211,106.734c0,0,4.103,20.314-14.852,29.105c-18.954,8.791-53.533,36.724-53.533,36.724
			s-15.813-11.581-28.238-27.933c-2.192-2.872-4.267-5.884-6.142-9.002c-1.688-2.825-3.212-5.744-4.49-8.721
			c0,0-15.637-2.591-15.637-13.14c0-10.55,6.447-11.136,6.447-11.136s-10.936-6.259-3.317-17.981s14.652-3.704,14.652-3.704
			s-1.524-5.251,2.344-11.288c1.993-3.13,5.451-6.482,11.335-9.424c17.184-8.592,24.03,4.888,24.03,4.888s3.903-12.894,20.9-9.577
			c16.997,3.317,12.308,10.749,12.308,10.749s16.516-6.635,25.788-2.977c1.641,0.633,3.048,1.594,4.103,2.977
			c5.837,7.619-1.465,10.936-4.103,11.839c-0.223,0.082-0.41,0.141-0.563,0.188c0.141-0.035,0.328-0.07,0.563-0.117
			c3.517-0.727,16.551-2.673,21.099,7.432C313.18,97.357,303.604,105.949,295.211,106.734z"/>
		<rect x="223.509" y="156.645" style="fill:#FFCFC0;" width="33.993" height="41.319"/>
		<path style="fill:#FF8E77;" d="M257.502,156.645v33.29c-25.061-4.993-31.449-31.039-31.449-31.039
			c0.645-0.797,1.278-1.547,1.922-2.251H257.502z"/>
		<path style="fill:#FFCFC0;" d="M285.927,119.57c0,1.43-0.07,2.837-0.199,4.231c-0.422,23.549-3.716,54.53-27.933,54.53
			c-15.742,0-27.183-10.092-33.981-18.485c-15.379-6.892-26.092-22.33-26.092-40.276c0-24.346,19.751-44.097,44.097-44.097
			c23.205,0,42.215,17.93,43.964,40.676l0.004-0.002c0,0.019,0,0.039,0,0.058C285.87,117.317,285.927,118.436,285.927,119.57z"/>
		<path style="fill:#171659;" d="M279.328,94.368c-3.516,10.55-17.137-3.657-17.137-3.657c-5.415,14.945-26.96,6.588-26.96,6.588
			c-1.313,5.275-8.205,8.358-8.205,8.358c3.81,0.738,7.033,3.95,4.689,10.397c-2.344,6.447-10.69,8.358-10.69,8.358
			c3.657,9.671,0.727,20.22,0.727,20.22h-23.162c-2.192-2.872-4.267-5.884-6.142-9.002v-65.97c1.993-3.13,5.451-6.482,11.335-9.424
			c17.184-8.592,24.03,4.888,24.03,4.888s3.903-12.894,20.9-9.577c16.997,3.317,12.308,10.749,12.308,10.749
			s16.516-6.635,25.788-2.977v25.19C292.081,97.158,279.328,94.368,279.328,94.368z"/>
		<path style="fill:#FFCFC0;" d="M222.776,144.191c0,0-2.784-15.238-13.627-13.92c-11.636,1.415-6.863,39.807,14.664,29.574
			L222.776,144.191z"/>
		<path style="fill:none;stroke:#FF8E77;stroke-linecap:round;stroke-linejoin:round;stroke-miterlimit:10;" d="M208.417,140.675
			c0,0,0-4.689,3.663-3.81c3.663,0.879,7.179,7.473,7.179,12.601"/>
		<path style="fill:none;stroke:#FF8E77;stroke-linecap:round;stroke-linejoin:round;stroke-miterlimit:10;" d="M216.427,140.561
			c0,0-4.782,1.645-3.032,8.904c0.883,3.663,3.96,4.396,3.96,4.396"/>
		<path style="fill:none;stroke:#130F40;stroke-linecap:round;stroke-linejoin:round;stroke-miterlimit:10;" d="M286.806,88.507
			c5.275,8.651-7.479,5.861-7.479,5.861c-0.152,0.446-0.316,0.856-0.504,1.219"/>
		<path style="fill:none;stroke:#FF8E77;stroke-linecap:round;stroke-linejoin:round;stroke-miterlimit:10;" d="M264.926,125.485
			c0,0-3.657,20.708,13.898,16.606l-8.819,11.771"/>
		<ellipse style="fill:#171659;" cx="244.608" cy="130.076" rx="1.563" ry="4.591"/>
		<ellipse style="fill:#171659;" cx="273.28" cy="130.076" rx="1.563" ry="4.591"/>
		<path style="fill:none;stroke:#171659;stroke-linecap:round;stroke-linejoin:round;stroke-miterlimit:10;" d="M237.575,112.005
			c0,0,6.838-3.321,10.94,0"/>
		<path style="fill:none;stroke:#171659;stroke-linecap:round;stroke-linejoin:round;stroke-miterlimit:10;" d="M267.809,112.005
			c0,0,6.838-3.321,10.94,0"/>
		<path style="fill:none;stroke:#FF8E77;stroke-linecap:round;stroke-linejoin:round;stroke-miterlimit:10;" d="M249.883,156.645
			c0,0,4.298,7.912,16.215,7.326"/>
		<path style="fill:#FFFFFF;" d="M271.849,216.391c-9.096,14.347-21.966,20.841-21.966,20.841
			c-12.484-6.119-23.924-13.668-33.137-20.501C228.585,217.751,254.49,219.415,271.849,216.391z"/>
		<path style="fill:#6A6AE2;" d="M303.357,279.724c-0.711,2.097-1.421,4.033-2.124,5.843l26.561-14.931l-11.625-45.395
			c-1.852-7.209-5.744-13.574-11.077-18.426l-5.978,21.04C299.114,227.855,313.18,250.712,303.357,279.724z"/>
		<path style="fill:#FFCFC0;" d="M119.866,284.588c-11.909,15.66-7.479,38.201,9.471,48.2l45.328,26.737l13.093-25.588
			l-31.449-24.815l23.88-31.524l-34.368-27.166L119.866,284.588z"/>
		<path style="fill:#6A6AE2;" d="M303.357,279.724c9.823-29.011-4.243-51.869-4.243-51.869l5.978-21.04
			c-3.903-3.563-8.569-6.306-13.75-7.982l-11.429-3.692c-4.689,29.293-30.031,42.093-30.031,42.093
			c-23.631-11.593-43.523-28.273-51.693-35.587l-1.711,0.738c-12.894,5.556-24.229,14.136-33.079,25.002
			c-0.609,0.75-1.219,1.512-1.805,2.286l-15.774,20.759l34.368,27.166l8.636-11.401l5.966-7.865h94.36l8.016,29.521l4.066-2.286
			C301.937,283.756,302.647,281.821,303.357,279.724z"/>
		<path style="fill:#6A6AE2;" d="M295.176,337.699c-0.34-1.02-0.692-1.981-1.043-2.884c-8.733-22.084-3.399-25.483,4.255-42.468
			c1.594-3.528,3.282-7.642,4.97-12.624c9.823-29.011-4.243-51.869-4.243-51.869l5.978-21.04c-3.903-3.563-8.569-6.306-13.75-7.982
			l-11.429-3.692c-4.689,29.293-30.031,42.093-30.031,42.093c-23.631-11.593-43.523-28.273-51.693-35.587l-1.711,0.738
			c-12.894,5.556-24.229,14.136-33.079,25.002c9.577,12.038,18.919,24.651,25.424,38.811c9.999,21.756,13.351,47.168,0.692,79.755
			c-2.404,6.192-4.475,12.229-6.284,18.087h117.864C299.402,353.716,297.437,344.425,295.176,337.699z"/>
		<path style="fill:#4E4ECE;" d="M301.097,364.038H183.232c-14.285,46.258-11.299,80.669-11.299,80.669h137.437
			c0,0-1.946-34.509-6.142-66.193C302.572,373.572,301.862,368.7,301.097,364.038z"/>
		<path style="fill:none;stroke:#171659;stroke-linecap:round;stroke-linejoin:round;stroke-miterlimit:10;" d="M299.114,227.855
			c0,0,14.066,22.857,4.243,51.869c-1.688,4.982-3.376,9.096-4.97,12.624"/>
		
			<line style="fill:none;stroke:#171659;stroke-linecap:round;stroke-linejoin:round;stroke-miterlimit:10;" x1="188.824" y1="266.197" x2="194.791" y2="258.332"/>
		<g>
			<path style="fill:#FFCFC0;" d="M187.758,333.937l13.916-4.953c5.854-2.084,12.404-0.613,16.751,3.828
				c7.416,7.577,16.874,19.505,11.727,26.913c-8.01,11.526-23.639,0-23.639,0s-13.878,7.416-31.848-0.199L187.758,333.937z"/>
			
				<line style="fill:none;stroke:#FF8E77;stroke-linecap:round;stroke-linejoin:round;stroke-miterlimit:10;" x1="209.638" y1="354.059" x2="224.907" y2="364.038"/>
			
				<line style="fill:none;stroke:#FF8E77;stroke-linecap:round;stroke-linejoin:round;stroke-miterlimit:10;" x1="210.615" y1="346.45" x2="230.151" y2="359.724"/>
			
				<line style="fill:none;stroke:#FF8E77;stroke-linecap:round;stroke-linejoin:round;stroke-miterlimit:10;" x1="210.615" y1="337.844" x2="231.274" y2="352.03"/>
		</g>
		
			<line style="fill:none;stroke:#171659;stroke-linecap:round;stroke-linejoin:round;stroke-miterlimit:10;" x1="248.906" y1="394.73" x2="241.824" y2="444.707"/>
		<path style="fill:none;stroke:#171659;stroke-linecap:round;stroke-linejoin:round;stroke-miterlimit:10;" d="M205.536,373.595
			c0,0-10.159,43.37-10.745,71.112"/>
		<path style="fill:none;stroke:#171659;stroke-linecap:round;stroke-linejoin:round;stroke-miterlimit:10;" d="M217.273,379.301
			c0,0-5.72,21.96-19.082,32.352"/>
		<path style="fill:none;stroke:#FF8E77;stroke-linecap:round;stroke-linejoin:round;stroke-miterlimit:10;" d="M156.308,309.122
			c-11.335-8.983-17.977-10.546-17.977-10.546"/>
	</g>
	<g>
		<circle style="fill:#B3B3FF;" cx="351.638" cy="253.384" r="31.703"/>
		<polygon style="fill:#FFFFFF;" points="336.385,246.406 330.793,251.503 342.607,269.851 375.46,242.669 344.936,259.318 		"/>
		<polygon style="fill:#B3B3FF;" points="335.306,271.07 317.987,308.272 344.438,277.048 		"/>
	</g>
	<g>
		<g>
			<path style="fill:#FFCFC0;" d="M107.708,204.216l9.841-10.55c0,0,2.613-1.661,1.197-5.958c0,0,3.313-2.686,1.852-4.884
				c-0.947-1.424-3.294,0.022-4.829,1.217c-0.908,0.707-1.429,1.795-1.429,2.946v2.723l-10.88,11.771L107.708,204.216z"/>
			
				<line style="fill:none;stroke:#FF8E77;stroke-width:0.5;stroke-linecap:round;stroke-linejoin:round;stroke-miterlimit:10;" x1="117.818" y1="186.536" x2="120.933" y2="184.454"/>
			
				<line style="fill:none;stroke:#FF8E77;stroke-width:0.5;stroke-linecap:round;stroke-linejoin:round;stroke-miterlimit:10;" x1="117.034" y1="185.495" x2="120.765" y2="183.133"/>
			
				<line style="fill:none;stroke:#FF8E77;stroke-width:0.5;stroke-linecap:round;stroke-linejoin:round;stroke-miterlimit:10;" x1="115.78" y1="184.778" x2="119.868" y2="182.291"/>
		</g>
		<path style="fill:#FFCFC0;" d="M105.608,308.539l0.488-1.954l-6.545-0.977l-0.902,3.907
			C104.543,310.447,105.608,308.539,105.608,308.539z"/>
		<path style="fill:#171659;" d="M111.957,313.228c0,0-0.02-2.943-6.349-4.689c0,0-1.065,1.908-6.958,0.977l-0.857,3.712H111.957z"
			/>
		<path style="fill:#171659;" d="M124.156,223.682c-2.544,3.88,0.152,8.768-2.473,8.522c-2.637-0.246-2.837-3.376-2.837-3.376
			l-9.178,7.326c0,0-3.376,4.642-5.767,2.45c-2.286-2.098,0.551-4.689,0.809-4.923c-0.234,0.082-2.755,0.856-3.399-2.262
			c-0.68-3.27,3.517-5.908,3.517-5.908s-2.544-0.492-0.879-3.001c1.665-2.52,4.595-3.81,4.595-3.81
			c-0.059-1.594-0.199-2.028,2.872-2.86c0.879-0.234,1.383-0.961,1.852-1.875c1.172-2.297,2.122-5.791,8.111-5.791
			c4.103,0,5.791,1.805,6.189,4.22C128.176,216.122,125.703,221.326,124.156,223.682z"/>
		<path style="fill:#FFCFC0;" d="M127.145,216.52c0,0.27-0.012,0.527-0.047,0.785c-0.023,0.188-0.058,0.363-0.082,0.539
			c-0.844,5.638-1.618,8.487-6.025,8.053v5.521l-5.228-4.056l0.727-5.755c-1.489-1.184-2.438-3.024-2.438-5.087
			c0-3.61,2.93-6.541,6.552-6.541C124.214,209.979,127.145,212.91,127.145,216.52z"/>
		<path style="fill:none;stroke:#FF8E77;stroke-width:0.5;stroke-linecap:round;stroke-linejoin:round;stroke-miterlimit:10;" d="
			M123.532,215.499l-0.238,1.467c-0.102,0.625,0.278,1.243,0.892,1.396c1.053,0.264,2.068,0.964-1.093,2.802"/>
		<path style="fill:#171659;" d="M120.998,216.672c-0.032,0.444-0.216,0.792-0.411,0.778c-0.195-0.014-0.327-0.385-0.295-0.829
			c0.032-0.444,0.216-0.792,0.411-0.778C120.898,215.856,121.03,216.228,120.998,216.672z"/>
		<path style="fill:#171659;" d="M125.723,217.014c-0.032,0.444-0.216,0.792-0.411,0.778c-0.195-0.014-0.327-0.385-0.295-0.829
			c0.032-0.444,0.216-0.792,0.411-0.778C125.623,216.198,125.755,216.57,125.723,217.014z"/>
		<path style="fill:none;stroke:#FF8E77;stroke-width:0.5;stroke-linecap:round;stroke-linejoin:round;stroke-miterlimit:10;" d="
			M119.992,220.699c0,0,0.439,1.222,1.685,1.808"/>
		<path style="fill:none;stroke:#FF8E77;stroke-width:0.5;stroke-linecap:round;stroke-linejoin:round;stroke-miterlimit:10;" d="
			M120.991,225.897c-1.854-0.729-2.904-1.779-3.441-3.391"/>
		<path style="fill:#171659;" d="M127.567,212.394c-0.211,0.293-0.481,0.574-0.832,0.809c-2.86,1.934-4.595-1.958-4.595-1.958
			c-1.196,1.618-4.595,0-4.595,0c1.418,4.279-0.809,7.608-0.809,7.608l-3.235,0.481l-0.234-5.369
			c1.172-2.297,2.122-5.791,8.111-5.791C125.48,208.174,127.168,209.979,127.567,212.394z"/>
		<path style="fill:#FFCFC0;" d="M116.792,218.282c0,0-0.195-3.37-2.741-2.694c-2.874,0.763-1.284,7.684,2.438,6.019
			L116.792,218.282z"/>
		<path style="fill:#171659;" d="M120.016,284.07l-3.491,5.128l7.742,5.082c1.047,0.687,2.391,0.724,3.475,0.097l0.231-0.134
			c0.823-0.477,1.41-1.321,1.451-2.271c0.043-1.006-0.455-1.916-2.911-0.918c0,0-2.344-2.344-2.149-5.226L120.016,284.07z"/>
		<path style="fill:none;stroke:#FF8E77;stroke-width:0.5;stroke-linecap:round;stroke-linejoin:round;stroke-miterlimit:10;" d="
			M113.178,217.305c0,0,0.879-0.781,1.954,0c1.075,0.781,0.488,2.149,0.488,2.149"/>
		<path style="fill:none;stroke:#FF8E77;stroke-width:0.5;stroke-linecap:round;stroke-linejoin:round;stroke-miterlimit:10;" d="
			M115.132,217.305c0,0-1.043,1.27-0.448,2.784"/>
		<path style="fill:#171659;" d="M129.008,269.561c0,0-6.259,1.758-11.921,1.758h-0.059c-0.012-1.746-0.047-7.642-0.106-14.699
			c-0.07-11.464-0.223-26.022-0.399-30.852c0.692,0.551,1.453,1.278,2.415,1.993c2.215,1.653,3.774,2.966,4.853,3.95
			c0.727,0.668,1.243,1.196,1.594,1.583c1.149,3.751,1.571,9.764,1.958,14.734L129.008,269.561z"/>
		<path style="fill:#54B4C1;" d="M143.704,238.502l-8.596,8.547l-9.035-12.894c0,0-0.166-0.277-0.69-0.858
			c1.151,3.745,1.575,9.762,1.96,14.729l2.814,3.935c1.986,2.777,5.916,3.275,8.532,1.081l10.29-8.631L143.704,238.502z"/>
		<path style="fill:#6A6AE2;" d="M133.088,273.406l-7.314,13.937l-6.928-3.376l6.201-14.699l-6.201-2.825l-11.968,41.026
			l-8.405-1.465l10.186-43.593l1.489-6.377h13.386l1.172,1.336l7.49,8.569C134.014,268.002,134.365,270.979,133.088,273.406z"/>
		<polygon style="fill:#4E4ECE;" points="124.707,257.37 108.66,262.411 110.148,256.034 123.535,256.034 		"/>
		<path style="fill:#6A6AE2;" d="M124.261,246.563c0.539,2.192,1.325,10.057,1.325,10.057h-8.662
			c-0.07-11.464-0.223-26.022-0.399-30.852c0.692,0.551,1.453,1.278,2.415,1.993c2.215,1.653,3.774,2.966,4.853,3.95
			c0.434,1.114,1.899,5.087,1.981,7.959C125.879,243.046,123.722,244.359,124.261,246.563z"/>
		<path style="fill:#54B4C1;" d="M116.335,225.613c-1.731-1.429-3.008-3.331-3.678-5.473l-4.412-14.117l7.534-9.426l-6.216-4.835
			l-6.703,8.19c-2.07,2.529-2.761,5.915-1.849,9.053l5.963,20.511c0,0-0.83,17.387-2.198,24.762
			c-1.368,7.375-1.758,15.58-1.758,15.58l14.014,1.46c-0.025-4.609-0.215-37.757-0.509-45.548L116.335,225.613z"/>
		
			<polyline style="fill:none;stroke:#171659;stroke-width:0.5;stroke-linecap:round;stroke-linejoin:round;stroke-miterlimit:10;" points="
			117.034,241.194 112.574,233.298 115.132,230.492 112.153,229.809 115.132,224.466 		"/>
		<path style="fill:none;stroke:#171659;stroke-width:0.5;stroke-linecap:round;stroke-linejoin:round;stroke-miterlimit:10;" d="
			M113.471,260.749l-0.202,3.638c-0.061,1.102-1.011,1.941-2.113,1.866l-2.389-0.163c-1.114-0.076-1.945-1.059-1.836-2.17
			l0.313-3.171H113.471z"/>
	</g>
	<g>
		<path style="fill:#54C3EA;" d="M174.051,444.707H94.797c-2.877,0-5.208-2.332-5.208-5.208V318.437
			c0-2.877,2.332-5.208,5.208-5.208h79.254c2.876,0,5.208,2.332,5.208,5.208v121.062
			C179.259,442.375,176.928,444.707,174.051,444.707z"/>
		<rect x="99.108" y="324.126" style="fill:#FFFFFF;" width="70.631" height="107.98"/>
		<path style="fill:#171659;" d="M147.031,320.655h-25.214c-0.403,0-0.729-0.326-0.729-0.729v-2.499
			c0-0.402,0.326-0.729,0.729-0.729h25.214c0.402,0,0.729,0.326,0.729,0.729v2.499C147.759,320.329,147.433,320.655,147.031,320.655
			z"/>
		<path style="fill:none;stroke:#171659;stroke-linecap:round;stroke-linejoin:round;stroke-miterlimit:10;" d="M147.921,328.052
			h-26.993c-1.263,0-2.286-1.023-2.286-2.286v-4.803c0-1.263,1.023-2.286,2.286-2.286h26.993c1.262,0,2.286,1.023,2.286,2.286v4.803
			C150.206,327.029,149.183,328.052,147.921,328.052z"/>
		<g>
			<g>
				<g>
					
						<line style="fill:none;stroke:#B3B3FF;stroke-linecap:round;stroke-linejoin:round;stroke-miterlimit:10;" x1="108.25" y1="338.459" x2="121.633" y2="338.459"/>
					
						<line style="fill:none;stroke:#B3B3FF;stroke-linecap:round;stroke-linejoin:round;stroke-miterlimit:10;" x1="108.25" y1="342.415" x2="133.208" y2="342.415"/>
					
						<line style="fill:none;stroke:#B3B3FF;stroke-linecap:round;stroke-linejoin:round;stroke-miterlimit:10;" x1="108.25" y1="346.371" x2="133.208" y2="346.371"/>
					
						<line style="fill:none;stroke:#B3B3FF;stroke-linecap:round;stroke-linejoin:round;stroke-miterlimit:10;" x1="108.25" y1="350.327" x2="133.208" y2="350.327"/>
				</g>
				<circle style="fill:#B3B3FF;" cx="149.914" cy="344.393" r="8.425"/>
				
					<polyline style="fill:none;stroke:#6A6AE2;stroke-width:2;stroke-linecap:round;stroke-linejoin:round;stroke-miterlimit:10;" points="
					145.225,341.974 149.61,346.822 160.597,338.177 				"/>
			</g>
			<g>
				<g>
					
						<line style="fill:none;stroke:#B3B3FF;stroke-linecap:round;stroke-linejoin:round;stroke-miterlimit:10;" x1="108.25" y1="360.941" x2="121.633" y2="360.941"/>
					
						<line style="fill:none;stroke:#B3B3FF;stroke-linecap:round;stroke-linejoin:round;stroke-miterlimit:10;" x1="108.25" y1="364.897" x2="133.208" y2="364.897"/>
					
						<line style="fill:none;stroke:#B3B3FF;stroke-linecap:round;stroke-linejoin:round;stroke-miterlimit:10;" x1="108.25" y1="368.853" x2="133.208" y2="368.853"/>
					
						<line style="fill:none;stroke:#B3B3FF;stroke-linecap:round;stroke-linejoin:round;stroke-miterlimit:10;" x1="108.25" y1="372.809" x2="133.208" y2="372.809"/>
				</g>
				<circle style="fill:#B3B3FF;" cx="149.914" cy="366.875" r="8.425"/>
				
					<polyline style="fill:none;stroke:#6A6AE2;stroke-width:2;stroke-linecap:round;stroke-linejoin:round;stroke-miterlimit:10;" points="
					145.225,364.456 149.61,369.304 160.597,360.659 				"/>
			</g>
			<g>
				<g>
					
						<line style="fill:none;stroke:#B3B3FF;stroke-linecap:round;stroke-linejoin:round;stroke-miterlimit:10;" x1="108.25" y1="383.423" x2="121.633" y2="383.423"/>
					
						<line style="fill:none;stroke:#B3B3FF;stroke-linecap:round;stroke-linejoin:round;stroke-miterlimit:10;" x1="108.25" y1="387.379" x2="133.208" y2="387.379"/>
					
						<line style="fill:none;stroke:#B3B3FF;stroke-linecap:round;stroke-linejoin:round;stroke-miterlimit:10;" x1="108.25" y1="391.335" x2="133.208" y2="391.335"/>
					
						<line style="fill:none;stroke:#B3B3FF;stroke-linecap:round;stroke-linejoin:round;stroke-miterlimit:10;" x1="108.25" y1="395.291" x2="133.208" y2="395.291"/>
				</g>
				<circle style="fill:#B3B3FF;" cx="149.914" cy="389.357" r="8.425"/>
				
					<polyline style="fill:none;stroke:#6A6AE2;stroke-width:2;stroke-linecap:round;stroke-linejoin:round;stroke-miterlimit:10;" points="
					145.225,386.938 149.61,391.786 160.597,383.141 				"/>
			</g>
			<g>
				<g>
					
						<line style="fill:none;stroke:#B3B3FF;stroke-linecap:round;stroke-linejoin:round;stroke-miterlimit:10;" x1="108.25" y1="405.905" x2="121.633" y2="405.905"/>
					
						<line style="fill:none;stroke:#B3B3FF;stroke-linecap:round;stroke-linejoin:round;stroke-miterlimit:10;" x1="108.25" y1="409.861" x2="133.208" y2="409.861"/>
					
						<line style="fill:none;stroke:#B3B3FF;stroke-linecap:round;stroke-linejoin:round;stroke-miterlimit:10;" x1="108.25" y1="413.817" x2="133.208" y2="413.817"/>
					
						<line style="fill:none;stroke:#B3B3FF;stroke-linecap:round;stroke-linejoin:round;stroke-miterlimit:10;" x1="108.25" y1="417.773" x2="133.208" y2="417.773"/>
				</g>
				<circle style="fill:#B3B3FF;" cx="149.914" cy="411.839" r="8.425"/>
				
					<polyline style="fill:none;stroke:#6A6AE2;stroke-width:2;stroke-linecap:round;stroke-linejoin:round;stroke-miterlimit:10;" points="
					145.225,409.42 149.61,414.268 160.597,405.623 				"/>
			</g>
		</g>
	</g>
	<g>
		<g>
			<g>
				<path style="fill:#B3B3FF;" d="M151.19,179.604H150c-1.908,0-3.455-1.547-3.455-3.455V149.51h8.1v26.638
					C154.645,178.057,153.098,179.604,151.19,179.604z"/>
				<path style="fill:#FFFFFF;" d="M150.991,177.699h-0.791c-1.269,0-2.298-1.029-2.298-2.298v-20.852h5.388v20.852
					C153.289,176.67,152.26,177.699,150.991,177.699z"/>
				<path style="fill:#4E4ECE;" d="M156.212,152.497h-11.233v-6.682c0-1.165,0.945-2.11,2.11-2.11h7.014
					c1.165,0,2.11,0.945,2.11,2.11V152.497z"/>
				<g>
					
						<line style="fill:none;stroke:#171659;stroke-width:0.5;stroke-linecap:round;stroke-linejoin:round;stroke-miterlimit:10;" x1="146.428" y1="145.171" x2="146.428" y2="151.032"/>
					
						<line style="fill:none;stroke:#171659;stroke-width:0.5;stroke-linecap:round;stroke-linejoin:round;stroke-miterlimit:10;" x1="148.512" y1="145.171" x2="148.512" y2="151.032"/>
					
						<line style="fill:none;stroke:#171659;stroke-width:0.5;stroke-linecap:round;stroke-linejoin:round;stroke-miterlimit:10;" x1="150.595" y1="145.171" x2="150.595" y2="151.032"/>
					
						<line style="fill:none;stroke:#171659;stroke-width:0.5;stroke-linecap:round;stroke-linejoin:round;stroke-miterlimit:10;" x1="152.678" y1="145.171" x2="152.678" y2="151.032"/>
					
						<line style="fill:none;stroke:#171659;stroke-width:0.5;stroke-linecap:round;stroke-linejoin:round;stroke-miterlimit:10;" x1="154.762" y1="145.171" x2="154.762" y2="151.032"/>
				</g>
			</g>
			<g>
				<path style="fill:#B3B3FF;" d="M168.023,179.604h-1.19c-1.908,0-3.455-1.547-3.455-3.455V149.51h8.1v26.638
					C171.478,178.057,169.931,179.604,168.023,179.604z"/>
				<path style="fill:#FFFFFF;" d="M167.824,177.699h-0.791c-1.269,0-2.298-1.029-2.298-2.298v-20.852h5.388v20.852
					C170.122,176.67,169.093,177.699,167.824,177.699z"/>
				<path style="fill:#4E4ECE;" d="M173.045,152.497h-11.233v-6.682c0-1.165,0.945-2.11,2.11-2.11h7.014
					c1.165,0,2.11,0.945,2.11,2.11V152.497z"/>
				<g>
					
						<line style="fill:none;stroke:#171659;stroke-width:0.5;stroke-linecap:round;stroke-linejoin:round;stroke-miterlimit:10;" x1="163.261" y1="145.171" x2="163.261" y2="151.032"/>
					
						<line style="fill:none;stroke:#171659;stroke-width:0.5;stroke-linecap:round;stroke-linejoin:round;stroke-miterlimit:10;" x1="165.345" y1="145.171" x2="165.345" y2="151.032"/>
					
						<line style="fill:none;stroke:#171659;stroke-width:0.5;stroke-linecap:round;stroke-linejoin:round;stroke-miterlimit:10;" x1="167.428" y1="145.171" x2="167.428" y2="151.032"/>
					
						<line style="fill:none;stroke:#171659;stroke-width:0.5;stroke-linecap:round;stroke-linejoin:round;stroke-miterlimit:10;" x1="169.511" y1="145.171" x2="169.511" y2="151.032"/>
					
						<line style="fill:none;stroke:#171659;stroke-width:0.5;stroke-linecap:round;stroke-linejoin:round;stroke-miterlimit:10;" x1="171.595" y1="145.171" x2="171.595" y2="151.032"/>
				</g>
			</g>
			<g>
				<path style="fill:#B3B3FF;" d="M184.856,179.604h-1.19c-1.908,0-3.455-1.547-3.455-3.455V149.51h8.1v26.638
					C188.311,178.057,186.764,179.604,184.856,179.604z"/>
				<path style="fill:#FFFFFF;" d="M184.657,177.699h-0.791c-1.269,0-2.298-1.029-2.298-2.298v-20.852h5.388v20.852
					C186.955,176.67,185.926,177.699,184.657,177.699z"/>
				<path style="fill:#4E4ECE;" d="M189.878,152.497h-11.233v-6.682c0-1.165,0.945-2.11,2.11-2.11h7.014
					c1.165,0,2.11,0.945,2.11,2.11V152.497z"/>
				<g>
					
						<line style="fill:none;stroke:#171659;stroke-width:0.5;stroke-linecap:round;stroke-linejoin:round;stroke-miterlimit:10;" x1="180.094" y1="145.171" x2="180.094" y2="151.032"/>
					
						<line style="fill:none;stroke:#171659;stroke-width:0.5;stroke-linecap:round;stroke-linejoin:round;stroke-miterlimit:10;" x1="182.178" y1="145.171" x2="182.178" y2="151.032"/>
					
						<line style="fill:none;stroke:#171659;stroke-width:0.5;stroke-linecap:round;stroke-linejoin:round;stroke-miterlimit:10;" x1="184.261" y1="145.171" x2="184.261" y2="151.032"/>
					
						<line style="fill:none;stroke:#171659;stroke-width:0.5;stroke-linecap:round;stroke-linejoin:round;stroke-miterlimit:10;" x1="186.345" y1="145.171" x2="186.345" y2="151.032"/>
					
						<line style="fill:none;stroke:#171659;stroke-width:0.5;stroke-linecap:round;stroke-linejoin:round;stroke-miterlimit:10;" x1="188.428" y1="145.171" x2="188.428" y2="151.032"/>
				</g>
			</g>
		</g>
		<path style="fill:none;stroke:#171659;stroke-width:0.5;stroke-linecap:round;stroke-linejoin:round;stroke-miterlimit:10;" d="
			M140.273,182.29v-18.315c0-2.185,1.771-3.956,3.956-3.956h46.398c2.185,0,3.956,1.771,3.956,3.956v18.315"/>
		<rect x="131.88" y="182.29" style="fill:#4E4ECE;" width="71.097" height="4.323"/>
	</g>
	<g>
		<rect x="309.417" y="130.191" style="fill:#B3B3FF;" width="54.949" height="72.853"/>
		<path style="fill:#6A6AE2;" d="M320.237,156.857c-0.023-0.211-0.023-0.434-0.023-0.645c0-0.445,0.023-0.891,0.059-1.325
			C320.377,155.626,320.354,156.27,320.237,156.857z"/>
		<g>
			<path style="fill:#6A6AE2;" d="M352.867,183.992L322.59,195.62c0,0,2.543-7.994,12.214-12.788l0.481-7.139
				c0,0-15.039-0.387-10.737-12.308l-4.208-2.051c0,0,4.443-0.821,5.204-4.478c0.117-0.586,0.141-1.231,0.035-1.969
				c0-0.012,0-0.012,0-0.023c0.68-8.029,7.42-14.336,15.625-14.336c8.651,0,15.672,7.021,15.672,15.684
				c0,4.888-2.25,9.26-5.767,12.132v0.012C345.834,173.548,344.955,179.01,352.867,183.992z"/>
			
				<ellipse transform="matrix(0.7071 -0.7071 0.7071 0.7071 -10.2266 287.1365)" style="fill:#B3B3FF;" cx="341.491" cy="155.913" rx="13.553" ry="13.553"/>
			<path style="fill:#FFFFFF;" d="M333.799,146.169c-5.626,4.725-4.176,11.282,1.685,12.381c5.861,1.099,7.985,2.344,9.231,5.055
				c1.245,2.711,7.253,1.245,8.132-3.15c0.879-4.396,0.806-11.282-5.934-14.945C340.172,141.847,335.63,144.631,333.799,146.169z"/>
			<path style="fill:none;stroke:#B3B3FF;stroke-linecap:round;stroke-linejoin:round;stroke-miterlimit:10;" d="M340.319,146.975
				c0,0-4.762-0.879-6.887,4.762c-2.125,5.641,7.766,2.198,10.183,4.176c2.418,1.978,1.319,5.494,4.542,6.007
				c3.223,0.513,4.615-4.249,1.905-7.033c-2.711-2.784-3.077-6.154-6.667-6.593c-3.59-0.44-6.74,3.004-4.103,3.81
				c2.637,0.806,5.788-0.073,7.473,2.784"/>
		</g>
		<rect x="332.861" y="121.187" style="fill:#6A6AE2;" width="8.059" height="13.48"/>
		<g>
			
				<line style="fill:none;stroke:#171659;stroke-width:0.5;stroke-linecap:round;stroke-linejoin:round;stroke-miterlimit:10;" x1="315.032" y1="136.719" x2="320.339" y2="136.719"/>
			
				<line style="fill:none;stroke:#171659;stroke-width:0.5;stroke-linecap:round;stroke-linejoin:round;stroke-miterlimit:10;" x1="315.032" y1="139.673" x2="323.583" y2="139.673"/>
			
				<line style="fill:none;stroke:#171659;stroke-width:0.5;stroke-linecap:round;stroke-linejoin:round;stroke-miterlimit:10;" x1="315.032" y1="142.628" x2="323.583" y2="142.628"/>
		</g>
	</g>
	<g>
		<path style="fill:#FFCFC0;" d="M277.838,329.522l0.689,5.88h-7.396l-0.586-5.275c-5.275,0.047-5.521-6.306-5.521-6.306
			l-1.528-1.498c-0.376-0.369-0.219-0.999,0.28-1.167c1.518-0.51,1.525-1.127,2.138-4.181l0.012,0.012
			c0.777-4.108,4.541-7.165,8.94-6.832c3.98,0.3,7.315,3.501,7.756,7.468c0.339,3.045-0.939,5.809-3.087,7.546
			C278.249,326.209,277.646,327.879,277.838,329.522z"/>
		<path style="fill:#171659;" d="M276.635,329.98c-2.894-5.348-5.348-7.253-3.26-12.381c0,0-6.594-0.476-9.268-6.337l2.051,0.183
			l-1.135-1.978l2.528,0.183l-1.429-1.685c0,0,4.103,1.062,7.766,0.44c3.663-0.623,8.022,2.161,7.986,5.788
			c0,0,2.271,1.026,2.674,4.176c0.403,3.15-5.238,7.399-6.154,11.612l-0.989-1.941L276.635,329.98z"/>
		<path style="fill:#FFCFC0;" d="M272.252,321.873c0,0,0.879-2.54,3.565-1.563c2.686,0.977,1.026,8.889-3.907,5.763L272.252,321.873
			z"/>
		<path style="fill:none;stroke:#FF8E77;stroke-width:0.5;stroke-linecap:round;stroke-linejoin:round;stroke-miterlimit:10;" d="
			M273.375,323.443c0,0,0.391-2.303,2.149-2.156"/>
		<path style="fill:#171659;" d="M267.56,320.326c-0.076,0.546-0.279,0.969-0.453,0.944c-0.174-0.024-0.253-0.486-0.176-1.032
			s0.279-0.969,0.453-0.944C267.558,319.318,267.637,319.78,267.56,320.326z"/>
		<path style="fill:none;stroke:#FF8E77;stroke-width:0.5;stroke-linecap:round;stroke-linejoin:round;stroke-miterlimit:10;" d="
			M266.379,325.768c0,0,1.062,0.257,2.125-0.806"/>
		<path style="fill:none;stroke:#171659;stroke-width:0.5;stroke-linecap:round;stroke-linejoin:round;stroke-miterlimit:10;" d="
			M271.91,326.073c-2.198,9.231-4.687,35.605-11.599,35.214c-6.912-0.391-17.248-34.603-17.248-34.603"/>
		<polygon style="fill:#171659;" points="262.879,437.674 252.569,444.707 271.544,444.707 270.005,436.795 		"/>
		<polygon style="fill:#171659;" points="278.503,437.251 274.338,444.707 286.709,444.707 285.976,437.674 		"/>
		<path style="fill:#54B4C1;" d="M287.979,376.916c0.781,17.876-0.684,60.758-0.684,60.758l-10.159-0.488
			c0,0-0.977-44.347-3.907-59.781L287.979,376.916z"/>
		<circle style="fill:#B3B3FF;" cx="243.063" cy="324.825" r="2.921"/>
		<circle style="fill:#4E4ECE;" cx="243.063" cy="324.825" r="1.859"/>
		<path style="fill:#FFCFC0;" d="M255.33,346.948l4.982,6.963l-2.93,2.837c-3.423,3.329-9.155,1.946-10.69-2.579l-6.212-18.18
			l5.427-1.899l6.822,16.457C253.689,349.257,254.544,348.061,255.33,346.948z"/>
		<path style="fill:#FFCFC0;" d="M295.852,366.207c-0.715,0.692-1.36,1.43-1.958,2.215c0,0,0.07,0.035,0.164,0.27
			c0.094,0.223,0.211,0.656,0.316,1.43c0.199,1.571,0.387,2.11,0.387,2.11c0.985,0.586,2.93-0.352,2.837,0.633
			c-0.094,0.973-3.118,0.586-3.118,0.586c0.434,0.586,3.071,0,3.118,1.078c0.047,1.02-3.54,0.082-3.833,0.012
			c0.598,0.633,3.915,1.172,3.247,2.18c-0.586,0.891-3.563-0.82-4.325-1.266c0.481,0.375,1.875,1.512,1.348,2.239
			c-0.633,0.879-4.665-3.118-4.665-3.118v-6.658c0-1.418,0.457-2.802,1.289-3.939l7.924-9.893l-5.076-3.106l4.185-7.994
			c2.262,1.571,4.337,3.153,6.095,4.56c3.224,2.591,3.54,7.373,0.656,10.327L295.852,366.207z"/>
		<path style="fill:#FFCFC0;" d="M245.903,334.083l0.938-2.857c0.514-1.564,0.558-3.242,0.141-4.835
			c-0.422-1.613-1.068-3.287-1.885-2.948c-1.514,0.628,0.195,2.948-0.733,4.303c0,0-0.439-6.884-3.883-5.841
			c-3.443,1.043-3.297,7.197,0,14.083L245.903,334.083z"/>
		<path style="fill:none;stroke:#FF8E77;stroke-width:0.5;stroke-linecap:round;stroke-linejoin:round;stroke-miterlimit:10;" d="
			M241.789,321.905c0,0,0.187,4.217,0.819,6.318"/>
		<path style="fill:none;stroke:#FF8E77;stroke-width:0.5;stroke-linecap:round;stroke-linejoin:round;stroke-miterlimit:10;" d="
			M240.225,322.002c0,0-0.403,2.97,0.574,6.891"/>
		<path style="fill:none;stroke:#FF8E77;stroke-width:0.5;stroke-linecap:round;stroke-linejoin:round;stroke-miterlimit:10;" d="
			M238.451,323.833c0,0-0.143,3.07,0.883,5.757"/>
		<path style="fill:none;stroke:#FF8E77;stroke-width:0.5;stroke-linecap:round;stroke-linejoin:round;stroke-miterlimit:10;" d="
			M289.639,373.156c0,0,3.272,2.637,3.81,1.807c0.537-0.83-1.612-2.686-1.612-2.686l0.147-2.296"/>
		<path style="fill:#54B4C1;" d="M289.639,378.186c-11.722,1.172-26.761-0.68-26.761-0.68l0.75-26.808l0.129-4.841
			c-0.703-3.563-0.785-6.646-0.41-9.249c2.696-2.297,5.896-3.106,12.179-3.106c3.376,0,7.127,1.137,10.889,2.86
			c0.633,3.317,1.149,7.197,1.559,11.241C289.428,361.905,289.639,378.186,289.639,378.186z"/>
		<path style="fill:#54B4C1;" d="M297.692,342.986l-4.185,7.994l-1.278,2.438l-6.353-3.458l-19.189,0.387l-5.134,5.31l-1.242-1.747
			l-4.982-6.963c3.552-4.993,5.58-8.264,8.018-10.339c2.696-2.297,5.896-3.106,12.179-3.106c3.376,0,7.127,1.137,10.889,2.86
			C290.331,338.145,294.234,340.559,297.692,342.986z"/>
		
			<line style="fill:none;stroke:#171659;stroke-width:0.5;stroke-linecap:round;stroke-linejoin:round;stroke-miterlimit:10;" x1="263.548" y1="353.595" x2="266.688" y2="350.347"/>
		<path style="fill:none;stroke:#171659;stroke-width:0.5;stroke-linecap:round;stroke-linejoin:round;stroke-miterlimit:10;" d="
			M288.32,351.29c-0.345-3.686-0.676-6.71-0.676-6.71"/>
		<path style="fill:#54B4C1;" d="M265.756,376.281l-5.45,28.806c-0.468,2.472-0.633,4.992-0.493,7.503l1.401,25.083h10.843
			l-1.905-27.253l13.333-34.139H265.756z"/>
		<path style="fill:none;stroke:#171659;stroke-width:0.5;stroke-linecap:round;stroke-linejoin:round;stroke-miterlimit:10;" d="
			M265.472,377.783c0,0,13.932,2.118,22.736,0.528"/>
		
			<line style="fill:none;stroke:#171659;stroke-width:0.5;stroke-linecap:round;stroke-linejoin:round;stroke-miterlimit:10;" x1="275.409" y1="396.96" x2="280.11" y2="384.924"/>
		<circle style="fill:#B3B3FF;" cx="273.147" cy="324.825" r="2.921"/>
		<circle style="fill:#4E4ECE;" cx="273.147" cy="324.825" r="1.859"/>
	</g>
	<g>
		<path style="fill:#4E4EFF;" d="M366.514,307.563c-4.525,0-4.533,7.033,0,7.033C371.04,314.596,371.047,307.563,366.514,307.563z"
			/>
		<path style="fill:#4E4EFF;" d="M159.626,201.481c-4.525,0-4.533,7.033,0,7.033C164.151,208.514,164.159,201.481,159.626,201.481z"
			/>
		<path style="fill:#4E4EFF;" d="M324.902,96.572c-4.525,0-4.533,7.033,0,7.033C329.427,103.605,329.435,96.572,324.902,96.572z"/>
		<path style="fill:#4E4EFF;" d="M290.323,177.452c-2.263,0-2.266,3.516,0,3.516C292.586,180.968,292.589,177.452,290.323,177.452z"
			/>
		<path style="fill:#4E4EFF;" d="M383.511,288.808c-2.263,0-2.266,3.516,0,3.516C385.773,292.324,385.777,288.808,383.511,288.808z"
			/>
		<path style="fill:#4E4EFF;" d="M177.208,301.116c-2.263,0-2.266,3.516,0,3.516C179.471,304.632,179.475,301.116,177.208,301.116z"
			/>
		<path style="fill:#4E4EFF;" d="M129.735,160.455c-2.263,0-2.266,3.517,0,3.517C131.998,163.972,132.002,160.455,129.735,160.455z"
			/>
		<path style="fill:#4E4EFF;" d="M157.867,114.154c-2.263,0-2.266,3.517,0,3.517C160.13,117.671,160.134,114.154,157.867,114.154z"
			/>
		<path style="fill:#4E4EFF;" d="M349.518,107.707c-2.263,0-2.266,3.517,0,3.517C351.78,111.224,351.784,107.707,349.518,107.707z"
			/>
	</g>
	
		<line style="fill:none;stroke:#171659;stroke-linecap:round;stroke-linejoin:round;stroke-miterlimit:10;" x1="81" y1="444.707" x2="419" y2="444.707"/>
</g>
</svg>
